<?xml version="1.0" encoding="UTF-8" standalone="no"?>
<!DOCTYPE svg PUBLIC "-//W3C//DTD SVG 1.1//EN" "http://www.w3.org/Graphics/SVG/1.1/DTD/svg11.dtd">
<svg width="100%" height="100%" viewBox="0 0 779 638" version="1.1" xmlns="http://www.w3.org/2000/svg" xmlns:xlink="http://www.w3.org/1999/xlink" xml:space="preserve" xmlns:serif="http://www.serif.com/" style="fill-rule:evenodd;clip-rule:evenodd;stroke-linejoin:round;stroke-miterlimit:2;">
    <g id="Artboard1" transform="matrix(1,0,0,1,-253,-13.9235)">
        <rect x="253" y="13.924" width="778" height="637.73" style="fill:none;"/>
        <g id="Wireframe" transform="matrix(0.937838,0,0,0.937838,600,333.712)">
            <g transform="matrix(1,0,0,1,-370,-340)">
                <g id="Scene-Wireframe" serif:id="Scene/Wireframe">
                    <path id="Twisted-Leaf" d="M690.225,195.334C689.692,194.946 688.426,194.809 687.838,194.692C685.39,194.21 682.869,194 680.374,194C672.681,194.012 664.863,194.767 657.298,196.074C652.494,196.903 646.687,199.696 641.909,198.179C633.585,195.537 625.172,195.667 617.274,199.439C610.053,202.888 604.572,209.439 601.373,216.517C600.89,217.586 598.932,221.519 598.378,224.17C598.141,224.712 597.913,225.257 597.708,225.811C597.126,227.384 596.603,228.984 596.118,230.588C595.91,231.272 595.389,232.782 596.008,233.074C595.019,234.901 594.141,236.783 593.411,238.726C591.286,244.378 588.962,250.578 588.215,256.568C587.939,258.786 587.928,261.017 588.185,263.239C588.312,264.338 588.26,266.546 589.004,267.382C590.585,269.154 591.396,266.673 591.218,265.491C589.858,256.485 592.485,248.027 595.598,239.561C597.612,234.087 600.92,229.078 604.626,224.543C607.625,220.871 610.842,217.98 614.953,215.546C619.981,212.569 625.356,210.163 630.681,207.749C634.184,206.161 637.691,204.615 641.291,203.247C642.092,202.942 643.351,202.161 644.239,202.158C646.116,202.152 648.777,203.537 650.59,204.052C656.554,205.748 662.594,207.919 668.758,208.785C672.712,209.341 676.416,208.715 680.113,207.398C680.491,207.264 681.125,206.918 681.901,206.424C684.646,205.368 687.243,204.039 689.504,202.121C690.806,201.017 691.989,199.589 693.067,198.282C693.389,197.892 693.532,197.444 693.537,197.018C693.781,196.891 693.943,196.741 693.98,196.567C694.249,195.281 691.796,195.258 690.225,195.334" style="fill:rgb(137,197,204);"/>
                    <g id="Fill-16" transform="matrix(0.777146,-0.62932,0.62932,0.777146,-176.12,141.46)">
                        <path d="M86.226,277.097C84.284,277.097 82.348,277.136 80.408,277.236C78.93,277.313 76.67,277.008 75.419,277.925C74.12,278.878 74.209,280.828 74.412,282.205C75.486,289.487 78.105,295.944 83.586,301.103C92.025,309.047 101.7,313.084 113.148,314.881C121.189,316.144 128.613,314.391 134.533,308.7C138.858,316.689 142.139,325.529 143.786,334.452C144.598,338.855 144.846,343.204 144.703,347.687C144.611,350.559 144.452,353.424 144.143,356.281C144.008,357.523 143.372,359.403 143.861,360.577C144.434,361.955 146.368,362.088 147.236,360.913C147.958,359.935 147.825,358.014 147.974,356.857C148.219,354.934 148.447,353.01 148.61,351.078C148.875,347.952 149.071,344.816 149.056,341.678C149.023,334.627 147.448,327.548 145.293,320.854C141.159,308.013 134.451,296.601 124.02,287.646C117.605,282.14 110.264,279.91 101.935,278.713C96.75,277.968 91.48,277.097 86.226,277.097" style="fill:rgb(221,227,233);"/>
                    </g>
                    <g id="Leaf" transform="matrix(0.798636,-0.601815,0.601815,0.798636,-115.12,98.8284)">
                        <path d="M130.485,308.721C128.91,296.179 127.243,283.709 124.191,271.411C122.393,264.164 120.088,257.069 117.993,249.905C118.181,250.803 118.347,251.708 118.491,252.615C117.763,250.478 116.241,248.434 115.366,246.305C114.389,243.93 113.604,241.463 112.859,239.011C111.403,234.225 110.029,229.431 108.391,224.7C106.565,219.43 104.463,214.246 102.503,209.022C100.841,204.588 99.283,199.932 97.119,195.701C95.939,193.394 94.881,190.917 93.723,188.566C93.335,187.779 90.009,178.991 90.034,178.991C90.584,178.991 92.647,182.897 92.988,183.471C93.987,185.147 94.836,186.892 95.693,188.64C96.063,186.564 96.649,184.533 97.573,182.625C97.858,182.036 99.858,177.693 100.509,177.693C100.834,177.693 97.828,185.894 97.448,186.614C97.14,187.199 96.561,187.941 96.36,188.563C96.035,189.568 96.202,189.317 96.471,190.223C96.963,191.885 98.052,193.512 98.738,195.108C99.114,195.959 100.041,198.912 100.943,200.234C103.266,204.774 104.916,210.31 106.685,215.206C107.065,212.801 107.723,210.481 108.633,208.218C108.849,207.68 110.568,202.693 111.063,202.693C111.62,202.693 109.487,210.681 109.197,211.371C108.659,212.653 107.813,213.893 107.366,215.198C106.875,216.63 107.737,217.918 108.287,219.383C110.309,224.771 112.081,230.213 113.701,235.728C123.107,231.608 124.977,219.484 125.591,210.543C126.033,204.099 125.035,197.537 123.471,191.286C121.384,182.943 117.873,174.889 114.148,167.135C109.807,158.099 103.837,150.03 96.64,142.956C92.875,139.256 88.588,136.05 84.234,133.045C82.107,131.577 79.921,130.359 77.438,129.542C76.319,129.174 75.17,128.908 74.008,128.704C73.126,128.549 71.325,127.731 70.593,127.94C64.618,129.593 60.126,132.342 56.644,137.454C53.347,142.292 51.301,148.077 50.163,153.751C48.897,160.071 48.591,166.442 49.678,172.801C50.508,177.653 51.938,182.41 53.371,187.12C58.466,203.873 67.396,221.834 83.42,231.024C88.607,233.999 94.363,235.737 100.271,236.659C101.663,236.877 103.054,237.083 104.463,237.163C105.412,237.216 108.535,236.585 109.222,236.995C110.164,237.556 110.705,240.741 111.116,241.896C114.236,250.672 117.026,259.548 119.558,268.504C122.252,278.032 124.391,287.652 126.174,297.38C126.931,301.517 127.67,305.648 128.299,309.808C128.445,310.776 128.294,313.82 129.238,314.675C129.836,315.216 130.68,314.994 131.035,314.332C131.653,313.181 130.646,310.005 130.485,308.721" style="fill:rgb(193,222,226);"/>
                    </g>
                    <path id="Fill-10" d="M680.98,231.66C677.57,230.915 673.803,230.972 670.329,231.033C651.695,231.287 633.397,240.109 621.489,254.205C611.351,266.205 608.563,281.125 606.56,296.207C606.362,297.704 606.277,299.192 606.165,300.693C606.141,301.015 606.105,301.302 606.066,301.573C605.279,302.277 604.865,303.098 605.332,304C603.597,307.797 602.129,311.69 600.869,315.706C597.162,327.526 593.392,339.571 595.714,352C596.257,345.16 597.399,338.166 598.764,331.438C598.842,331.052 598.927,330.669 599.015,330.287C599.025,330.247 599.033,330.206 599.042,330.166C599.525,328.106 600.153,326.108 600.917,324.141C600.925,324.119 600.933,324.098 600.941,324.077C601.042,323.818 601.149,323.56 601.255,323.303C601.474,322.77 601.699,322.238 601.937,321.709C602.018,321.528 602.095,321.346 602.17,321.163C603.282,318.437 603.751,315.365 604.748,312.545C604.986,311.904 605.235,311.265 605.496,310.629C605.512,310.592 605.527,310.555 605.543,310.518C606.249,308.807 607.028,307.118 607.853,305.446C608.301,305.11 608.54,304.274 608.927,303.515C609.006,303.365 609.631,302.368 609.817,301.793C610.303,300.854 610.786,299.915 611.275,298.977C611.261,298.983 611.246,298.988 611.231,298.994C611.72,298.093 612.211,297.197 612.698,296.304C612.805,296.108 612.913,295.912 613.021,295.715C613.196,295.402 613.371,295.089 613.545,294.777C615.177,291.856 616.908,288.994 618.705,286.167C619.347,285.158 620.879,283.711 621.173,282.579C621.184,282.536 621.186,282.497 621.193,282.457C625.093,276.979 629.582,271.927 634.967,267.924C634.316,268.628 632.932,271.015 632.567,271.488C631.447,272.935 630.232,274.282 629.013,275.646C626.828,278.089 624.696,280.609 622.801,283.274C619.335,288.148 616.346,293.277 613.519,298.51C613.493,298.54 613.463,298.569 613.438,298.601C612.017,300.352 611.123,302.998 610.101,305.001C614.147,303.127 618.622,301.906 622.774,300.242C626.916,298.583 630.944,296.735 634.834,294.566C640.003,291.682 645.366,288.427 650.25,284.743C655.847,281.271 660.551,276.492 664.703,271.477C669.615,265.543 674.117,259.558 676.901,252.353C678.269,248.813 679.345,245.121 679.983,241.386C680.011,241.224 680.046,241.047 680.085,240.864C680.738,239.574 681.321,238.255 681.811,236.906C682.588,234.766 684.425,232.412 680.98,231.66" style="fill:rgb(105,161,172);"/>
                    <g id="Leave-the-Leaf-" serif:id="Leave-the-Leaf!" transform="matrix(-0.529919,0.848048,0.848048,0.529919,-76.5288,42.4206)">
                        <path d="M86.603,265.822C86.188,264.303 85.939,262.732 86.054,261.142C86.084,260.741 86.421,257.822 86.747,257.822C87.507,257.822 86.46,265.354 86.603,265.822M73.382,272.396C73.428,272.415 74.264,274.022 74.539,274.489C75.122,275.482 75.743,276.451 76.382,277.396C75.184,275.839 74.109,274.337 73.382,272.396M118.257,224.564C118.969,223.963 118.579,222.464 117.735,223.292C117.054,223.962 117.034,223.896 116.177,223.853C115.481,223.818 114.741,223.602 114.042,223.516C112.56,223.334 111.085,223.257 109.593,223.361C106.395,223.584 103.283,224.346 100.322,225.53C95.154,227.598 89.938,230.278 85.826,234.009C79.289,239.941 74.04,248.062 70.942,256.16C69.024,261.174 67.991,266.208 69.735,271.423C70.606,274.03 71.985,276.511 73.987,278.469C74.51,278.981 75.2,279.377 75.69,279.914C76.443,280.74 76.27,280.476 75.781,281.654C75.246,282.941 74.717,284.229 74.19,285.519C72.813,288.897 71.456,292.314 70.456,295.819C70.127,296.972 69.873,298.144 69.689,299.328C69.55,300.223 68.741,303.629 69.445,304.544C70.617,306.067 71.116,303.728 71.153,302.928C71.186,302.227 71.247,301.524 71.335,300.828C71.555,299.073 71.954,297.351 72.473,295.658C73.033,293.829 73.719,292.035 74.401,290.246C75.037,288.578 75.703,286.921 76.382,285.27C76.759,284.352 77.141,283.437 77.523,282.521C77.653,282.208 77.72,281.554 78.065,281.823C78.819,279.867 80.047,278.01 81.065,276.175C82.312,273.927 83.584,271.683 85.017,269.541C86.051,267.996 87.14,266.484 88.331,265.049C89.027,264.21 89.771,263.422 90.562,262.666C90.996,262.252 92.48,260.472 93.078,260.472C92.821,260.472 91.658,262.732 91.476,262.999C90.752,264.067 89.966,265.085 89.163,266.098C87.673,267.979 86.291,269.929 85.041,271.968C85.402,272.183 86.902,271.193 87.349,271.002C88.352,270.575 89.384,270.209 90.44,269.927C92.302,269.43 94.576,268.864 96.414,268.864C95.872,268.864 94.615,269.748 94.052,269.988C93.148,270.373 92.222,270.724 91.283,271.016C90.416,271.287 89.533,271.493 88.644,271.683C87.755,271.872 86.148,271.88 85.339,272.353C85.29,272.382 85.341,272.84 85.15,272.963C84.957,273.087 84.405,273.046 84.36,273.08C83.697,273.578 83.234,275.019 82.835,275.728C81.801,277.567 80.793,279.42 79.775,281.267C79.46,281.839 79.041,282.231 79.318,282.695C79.614,283.189 81.013,283.496 81.56,283.676C83.589,284.346 85.646,284.567 87.762,284.216C91.726,283.558 95.167,281.842 98.268,279.414C110.149,270.112 119.894,258.406 122.868,243.544C124.1,237.391 125.426,227.795 118.257,224.564" style="fill:rgb(137,197,204);"/>
                    </g>
                    <g id="Background-Shape-2" transform="matrix(1,0,0,1,39,358)">
                        <g opacity="0.6">
                            <path id="Background-Shape" d="M661.711,146.152C671.361,211.476 437.337,254.085 235.908,224.349C34.478,194.614 -57.928,78.493 38.191,16.62C134.31,-45.254 652.061,80.828 661.711,146.152Z" style="fill:rgb(221,227,233);"/>
                        </g>
                    </g>
                    <g id="Mobile3" transform="matrix(1,0,0,1,138,76)">
                        <path id="Container" d="M159,8C159,3.585 155.415,0 151,0L8,0C3.585,0 0,3.585 0,8L0,294C0,298.415 3.585,302 8,302L151,302C155.415,302 159,298.415 159,294L159,8Z" style="fill:rgb(242,242,242);"/>
                        <circle id="Touch" cx="79" cy="268" r="15" style="fill:white;"/>
                        <g id="Camera" transform="matrix(1,0,0,1,64,16)">
                            <circle id="Lens" cx="2" cy="2" r="2" style="fill:white;"/>
                            <path id="Sensor" d="M30,2C30,0.896 29.104,0 28,0L11,0C9.896,0 9,0.896 9,2C9,3.104 9.896,4 11,4L28,4C29.104,4 30,3.104 30,2Z" style="fill:white;"/>
                        </g>
                        <g id="Rows" transform="matrix(1,0,0,1,14,28)">
                            <g id="Row">
                                <path id="Background" d="M131,4C131,1.792 129.208,0 127,0L4,0C1.792,0 0,1.792 0,4L0,50C0,52.208 1.792,54 4,54L127,54C129.208,54 131,52.208 131,50L131,4Z" style="fill:white;"/>
                                <g id="Text" transform="matrix(1,0,0,1,39,16.2)">
                                    <path id="Name" d="M73,3C73,1.344 71.656,0 70,0L3,0C1.344,0 0,1.344 0,3L0,5.1C0,6.756 1.344,8.1 3,8.1L70,8.1C71.656,8.1 73,6.756 73,5.1L73,3Z" style="fill:rgb(221,227,233);"/>
                                    <path id="Name1" serif:id="Name" d="M49,16.5C49,14.844 47.656,13.5 46,13.5L3,13.5C1.344,13.5 0,14.844 0,16.5L0,18.6C0,20.256 1.344,21.6 3,21.6L46,21.6C47.656,21.6 49,20.256 49,18.6L49,16.5Z" style="fill:rgb(221,227,233);"/>
                                </g>
                                <circle id="Avatar" cx="21" cy="27" r="12" style="fill:rgb(197,207,214);"/>
                            </g>
                            <g id="Row1" serif:id="Row" transform="matrix(1,0,0,1,0,62)">
                                <path id="Background1" serif:id="Background" d="M131,4C131,1.792 129.208,0 127,0L4,0C1.792,0 0,1.792 0,4L0,38C0,40.208 1.792,42 4,42L127,42C129.208,42 131,40.208 131,38L131,4Z" style="fill:white;"/>
                                <g id="Text1" serif:id="Text" transform="matrix(1,0,0,1,39,12.6)">
                                    <path id="Name2" serif:id="Name" d="M73,3C73,1.344 71.656,0 70,0L3,0C1.344,0 0,1.344 0,3L0,3.3C0,4.956 1.344,6.3 3,6.3L70,6.3C71.656,6.3 73,4.956 73,3.3L73,3Z" style="fill:rgb(221,227,233);"/>
                                    <path id="Name3" serif:id="Name" d="M49,13.5C49,11.844 47.656,10.5 46,10.5L3,10.5C1.344,10.5 0,11.844 0,13.5L0,13.8C0,15.456 1.344,16.8 3,16.8L46,16.8C47.656,16.8 49,15.456 49,13.8L49,13.5Z" style="fill:rgb(221,227,233);"/>
                                </g>
                                <circle id="Avatar1" serif:id="Avatar" cx="21" cy="21" r="12" style="fill:rgb(197,207,214);"/>
                            </g>
                            <g id="Row2" serif:id="Row" transform="matrix(1,0,0,1,0,112)">
                                <path id="Background2" serif:id="Background" d="M131,4C131,1.792 129.208,0 127,0L4,0C1.792,0 0,1.792 0,4L0,38C0,40.208 1.792,42 4,42L127,42C129.208,42 131,40.208 131,38L131,4Z" style="fill:white;"/>
                                <g id="Text2" serif:id="Text" transform="matrix(1,0,0,1,39,12.6)">
                                    <path id="Name4" serif:id="Name" d="M73,3C73,1.344 71.656,0 70,0L3,0C1.344,0 0,1.344 0,3L0,3.3C0,4.956 1.344,6.3 3,6.3L70,6.3C71.656,6.3 73,4.956 73,3.3L73,3Z" style="fill:rgb(221,227,233);"/>
                                    <path id="Name5" serif:id="Name" d="M49,13.5C49,11.844 47.656,10.5 46,10.5L3,10.5C1.344,10.5 0,11.844 0,13.5L0,13.8C0,15.456 1.344,16.8 3,16.8L46,16.8C47.656,16.8 49,15.456 49,13.8L49,13.5Z" style="fill:rgb(221,227,233);"/>
                                </g>
                                <circle id="Avatar2" serif:id="Avatar" cx="21" cy="21" r="12" style="fill:rgb(175,185,197);"/>
                            </g>
                            <g id="Row3" serif:id="Row" transform="matrix(1,0,0,1,0,162)">
                                <path id="Background3" serif:id="Background" d="M131,4C131,1.792 129.208,0 127,0L4,0C1.792,0 0,1.792 0,4L0,38C0,40.208 1.792,42 4,42L127,42C129.208,42 131,40.208 131,38L131,4Z" style="fill:white;"/>
                                <g id="Text3" serif:id="Text" transform="matrix(1,0,0,1,39,12.6)">
                                    <path id="Name6" serif:id="Name" d="M73,3C73,1.344 71.656,0 70,0L3,0C1.344,0 0,1.344 0,3L0,3.3C0,4.956 1.344,6.3 3,6.3L70,6.3C71.656,6.3 73,4.956 73,3.3L73,3Z" style="fill:rgb(221,227,233);"/>
                                    <path id="Name7" serif:id="Name" d="M49,13.5C49,11.844 47.656,10.5 46,10.5L3,10.5C1.344,10.5 0,11.844 0,13.5L0,13.8C0,15.456 1.344,16.8 3,16.8L46,16.8C47.656,16.8 49,15.456 49,13.8L49,13.5Z" style="fill:rgb(221,227,233);"/>
                                </g>
                                <circle id="Avatar3" serif:id="Avatar" cx="21" cy="21" r="12" style="fill:rgb(197,207,214);"/>
                            </g>
                        </g>
                    </g>
                    <g id="Mobile31" serif:id="Mobile3" transform="matrix(1,0,0,1,156,102)">
                        <g id="Group" transform="matrix(1,0,0,1,0,218)">
                            <path id="Fill-161" serif:id="Fill-16" d="M12.14,0C10.815,0 9.494,0.027 8.171,0.095C7.162,0.148 5.621,-0.061 4.768,0.568C3.881,1.221 3.942,2.557 4.081,3.501C4.813,8.493 6.6,12.919 10.339,16.456C16.096,21.901 22.695,24.668 30.504,25.9C35.99,26.766 41.054,25.564 45.092,21.663C48.043,27.139 50.281,33.199 51.404,39.315C51.958,42.333 52.127,45.315 52.03,48.388C51.967,50.356 51.859,52.32 51.648,54.279C51.556,55.13 51.122,56.418 51.455,57.223C51.846,58.167 53.165,58.259 53.757,57.453C54.25,56.783 54.16,55.466 54.261,54.673C54.429,53.355 54.584,52.036 54.695,50.712C54.876,48.569 55.009,46.42 54.999,44.268C54.977,39.435 53.902,34.583 52.432,29.995C49.612,21.192 45.037,13.369 37.921,7.231C33.545,3.457 28.537,1.929 22.856,1.108C19.318,0.597 15.723,0 12.14,0" style="fill:rgb(137,197,204);"/>
                            <path id="Fill-18" d="M32.571,35C18.272,35 8.642,46.524 4.089,58.502C2.372,63.016 1.97,67.974 1.308,72.714C1.096,74.236 1.175,76.554 0.557,77.909C0.333,78.401 -0.181,78.577 0.065,79.247C0.214,79.652 0.505,79.901 0.944,79.981C1.843,80.147 3.115,79.167 3.886,78.781C10.282,75.573 14.484,70.613 17.912,64.545C20.038,60.784 22.194,56.879 23.456,52.75C24.227,50.227 24.676,47.571 24.94,44.954C25.044,43.923 25.144,42.868 25.138,41.832C25.132,40.803 24.653,40.259 24.309,39.364C29.08,37.558 34.466,37.066 39.299,38.937C43.769,40.668 47.482,44.013 49.561,48.216C50.101,49.308 50.518,50.46 50.821,51.636C51.02,52.406 51.029,53.404 51.398,54.1C52.29,55.788 54.168,54.66 53.988,53.089C53.485,48.708 50.979,44.309 47.775,41.263C43.734,37.421 38.258,35 32.571,35" style="fill:rgb(137,197,204);"/>
                        </g>
                        <path id="Container1" serif:id="Container" d="M207,8C207,3.585 203.415,0 199,0L56,0C51.585,0 48,3.585 48,8L48,294C48,298.415 51.585,302 56,302L199,302C203.415,302 207,298.415 207,294L207,8Z" style="fill:rgb(221,227,233);"/>
                        <circle id="Touch1" serif:id="Touch" cx="127" cy="268" r="15" style="fill:white;"/>
                        <g id="Camera1" serif:id="Camera" transform="matrix(1,0,0,1,112,16)">
                            <circle id="Lens1" serif:id="Lens" cx="2" cy="2" r="2" style="fill:white;"/>
                            <path id="Sensor1" serif:id="Sensor" d="M30,2C30,0.896 29.104,0 28,0L11,0C9.896,0 9,0.896 9,2C9,3.104 9.896,4 11,4L28,4C29.104,4 30,3.104 30,2Z" style="fill:white;"/>
                        </g>
                        <g id="Rows1" serif:id="Rows" transform="matrix(1,0,0,1,62,28)">
                            <g id="Row4" serif:id="Row">
                                <path id="Container2" serif:id="Container" d="M131,4C131,1.792 129.208,0 127,0L4,0C1.792,0 0,1.792 0,4L0,50C0,52.208 1.792,54 4,54L127,54C129.208,54 131,52.208 131,50L131,4Z" style="fill:white;"/>
                                <g id="Text-Stuff" transform="matrix(1,0,0,1,9,16.2)">
                                    <path id="Label" d="M73,3C73,1.344 71.656,0 70,0L3,0C1.344,0 0,1.344 0,3L0,5.1C0,6.756 1.344,8.1 3,8.1L70,8.1C71.656,8.1 73,6.756 73,5.1L73,3Z" style="fill:rgb(221,227,233);"/>
                                    <path id="Label1" serif:id="Label" d="M49,16.5C49,14.844 47.656,13.5 46,13.5L3,13.5C1.344,13.5 0,14.844 0,16.5L0,18.6C0,20.256 1.344,21.6 3,21.6L46,21.6C47.656,21.6 49,20.256 49,18.6L49,16.5Z" style="fill:rgb(221,227,233);"/>
                                </g>
                                <g id="Check" transform="matrix(1,0,0,1,110,20)">
                                    <circle id="Background4" serif:id="Background" cx="7" cy="7" r="7" style="fill:rgb(221,227,233);"/>
                                    <circle id="Indicator" cx="7" cy="7" r="3" style="fill:rgb(242,242,242);"/>
                                </g>
                            </g>
                            <g id="Row5" serif:id="Row" transform="matrix(1,0,0,1,0,62)">
                                <path id="Background5" serif:id="Background" d="M131,4C131,1.792 129.208,0 127,0L4,0C1.792,0 0,1.792 0,4L0,38C0,40.208 1.792,42 4,42L127,42C129.208,42 131,40.208 131,38L131,4Z" style="fill:white;"/>
                                <g id="Text4" serif:id="Text" transform="matrix(1,0,0,1,39,12.6)">
                                    <path id="Name8" serif:id="Name" d="M73,3C73,1.344 71.656,0 70,0L3,0C1.344,0 0,1.344 0,3L0,3.3C0,4.956 1.344,6.3 3,6.3L70,6.3C71.656,6.3 73,4.956 73,3.3L73,3Z" style="fill:rgb(221,227,233);"/>
                                    <path id="Name9" serif:id="Name" d="M49,13.5C49,11.844 47.656,10.5 46,10.5L3,10.5C1.344,10.5 0,11.844 0,13.5L0,13.8C0,15.456 1.344,16.8 3,16.8L46,16.8C47.656,16.8 49,15.456 49,13.8L49,13.5Z" style="fill:rgb(221,227,233);"/>
                                </g>
                                <circle id="Avatar4" serif:id="Avatar" cx="21" cy="21" r="12" style="fill:rgb(197,207,214);"/>
                            </g>
                            <g id="Row6" serif:id="Row" transform="matrix(1,0,0,1,0,112)">
                                <path id="Container3" serif:id="Container" d="M131,4C131,1.792 129.208,0 127,0L4,0C1.792,0 0,1.792 0,4L0,38C0,40.208 1.792,42 4,42L127,42C129.208,42 131,40.208 131,38L131,4Z" style="fill:white;"/>
                                <g id="Text-Stuff1" serif:id="Text-Stuff" transform="matrix(1,0,0,1,9,12.6)">
                                    <path id="Label2" serif:id="Label" d="M73,3C73,1.344 71.656,0 70,0L3,0C1.344,0 0,1.344 0,3L0,3.3C0,4.956 1.344,6.3 3,6.3L70,6.3C71.656,6.3 73,4.956 73,3.3L73,3Z" style="fill:rgb(221,227,233);"/>
                                    <path id="Label3" serif:id="Label" d="M49,13.5C49,11.844 47.656,10.5 46,10.5L3,10.5C1.344,10.5 0,11.844 0,13.5L0,13.8C0,15.456 1.344,16.8 3,16.8L46,16.8C47.656,16.8 49,15.456 49,13.8L49,13.5Z" style="fill:rgb(175,185,197);"/>
                                </g>
                                <g id="Check1" serif:id="Check" transform="matrix(1,0,0,1,110,14)">
                                    <circle id="Background6" serif:id="Background" cx="7" cy="7" r="7" style="fill:rgb(221,227,233);"/>
                                    <circle id="Indicator1" serif:id="Indicator" cx="7" cy="7" r="3" style="fill:rgb(242,242,242);"/>
                                </g>
                            </g>
                            <g id="Row7" serif:id="Row" transform="matrix(1,0,0,1,0,162)">
                                <path id="Background7" serif:id="Background" d="M131,4C131,1.792 129.208,0 127,0L4,0C1.792,0 0,1.792 0,4L0,38C0,40.208 1.792,42 4,42L127,42C129.208,42 131,40.208 131,38L131,4Z" style="fill:white;"/>
                                <g id="Text5" serif:id="Text" transform="matrix(1,0,0,1,39,12.6)">
                                    <path id="Name10" serif:id="Name" d="M73,3C73,1.344 71.656,0 70,0L3,0C1.344,0 0,1.344 0,3L0,3.3C0,4.956 1.344,6.3 3,6.3L70,6.3C71.656,6.3 73,4.956 73,3.3L73,3Z" style="fill:rgb(221,227,233);"/>
                                    <path id="Name11" serif:id="Name" d="M49,13.5C49,11.844 47.656,10.5 46,10.5L3,10.5C1.344,10.5 0,11.844 0,13.5L0,13.8C0,15.456 1.344,16.8 3,16.8L46,16.8C47.656,16.8 49,15.456 49,13.8L49,13.5Z" style="fill:rgb(221,227,233);"/>
                                </g>
                                <circle id="Avatar5" serif:id="Avatar" cx="21" cy="21" r="12" style="fill:rgb(197,207,214);"/>
                            </g>
                        </g>
                    </g>
                    <g id="Web" transform="matrix(1,0,0,1,270,127)">
                        <path id="Container4" serif:id="Container" d="M335,8C335,3.585 331.415,0 327,0L8,0C3.585,0 0,3.585 0,8L0,338C0,342.415 3.585,346 8,346L327,346C331.415,346 335,342.415 335,338L335,8Z" style="fill:rgb(242,242,242);"/>
                        <path id="Background8" serif:id="Background" d="M319,51C319,46.585 315.415,43 311,43L257,43C252.585,43 249,46.585 249,51L249,116C249,120.415 252.585,124 257,124L311,124C315.415,124 319,120.415 319,116L319,51Z" style="fill:white;"/>
                        <g id="Profile-Info" transform="matrix(1,0,0,1,259,58)">
                            <circle id="Avatar6" serif:id="Avatar" cx="25" cy="16" r="16" style="fill:rgb(221,227,233);"/>
                            <path id="Name12" serif:id="Name" d="M50,39C50,37.344 48.656,36 47,36L3,36C1.344,36 0,37.344 0,39C0,40.656 1.344,42 3,42L47,42C48.656,42 50,40.656 50,39Z" style="fill:rgb(221,227,233);"/>
                            <path id="Name13" serif:id="Name" d="M42,49C42,47.344 40.656,46 39,46L11,46C9.344,46 8,47.344 8,49C8,50.656 9.344,52 11,52L39,52C40.656,52 42,50.656 42,49Z" style="fill:rgb(221,227,233);"/>
                        </g>
                        <path id="Header" d="M8,0L327,0C331.418,-0 335,3.582 335,8L335,27L0,27L0,8C-0,3.582 3.582,0 8,0Z" style="fill:rgb(197,207,214);"/>
                        <g id="Buttons" transform="matrix(1,0,0,1,9,10)">
                            <circle id="buttons" cx="4" cy="4" r="4" style="fill:rgb(242,242,242);"/>
                            <circle id="buttons1" serif:id="buttons" cx="16" cy="4" r="4" style="fill:rgb(242,242,242);"/>
                            <circle id="buttons2" serif:id="buttons" cx="28" cy="4" r="4" style="fill:rgb(242,242,242);"/>
                        </g>
                        <g id="Components" transform="matrix(1,0,0,1,249,132)">
                            <path id="Background9" serif:id="Background" d="M70,8C70,3.585 66.415,0 62,0L8,0C3.585,0 0,3.585 0,8L0,186C0,190.415 3.585,194 8,194L62,194C66.415,194 70,190.415 70,186L70,8Z" style="fill:white;"/>
                            <g id="Rows2" serif:id="Rows" transform="matrix(1,0,0,1,18,18)">
                                <path id="Data" d="M34,4C34,1.792 32.208,0 30,0L4,0C1.792,0 0,1.792 0,4L0,22C0,24.208 1.792,26 4,26L30,26C32.208,26 34,24.208 34,22L34,4Z" style="fill:rgb(221,227,233);"/>
                                <path id="Data1" serif:id="Data" d="M34,38C34,35.792 32.208,34 30,34L4,34C1.792,34 0,35.792 0,38L0,55C0,57.208 1.792,59 4,59L30,59C32.208,59 34,57.208 34,55L34,38Z" style="fill:rgb(175,185,197);"/>
                                <path id="Data2" serif:id="Data" d="M34,71C34,68.792 32.208,67 30,67L4,67C1.792,67 0,68.792 0,71L0,88C0,90.208 1.792,92 4,92L30,92C32.208,92 34,90.208 34,88L34,71Z" style="fill:rgb(221,227,233);"/>
                                <path id="Data3" serif:id="Data" d="M34,137C34,134.792 32.208,133 30,133L4,133C1.792,133 0,134.792 0,137L0,154C0,156.208 1.792,158 4,158L30,158C32.208,158 34,156.208 34,154L34,137Z" style="fill:rgb(221,227,233);"/>
                                <path id="Data4" serif:id="Data" d="M34,104C34,101.792 32.208,100 30,100L4,100C1.792,100 0,101.792 0,104L0,121C0,123.208 1.792,125 4,125L30,125C32.208,125 34,123.208 34,121L34,104Z" style="fill:rgb(197,207,214);"/>
                            </g>
                        </g>
                        <g id="Rows3" serif:id="Rows" transform="matrix(1,0,0,1,16,44)">
                            <g id="Row8" serif:id="Row">
                                <path id="Container5" serif:id="Container" d="M225,4C225,1.792 223.208,0 221,0L4,0C1.792,0 0,1.792 0,4L0,43C0,45.208 1.792,47 4,47L221,47C223.208,47 225,45.208 225,43L225,4Z" style="fill:white;"/>
                                <g id="Text-Stuff2" serif:id="Text-Stuff" transform="matrix(1,0,0,1,9,14.1)">
                                    <path id="Label4" serif:id="Label" d="M167,3C167,1.344 165.656,0 164,0L3,0C1.344,0 0,1.344 0,3L0,4.05C0,5.706 1.344,7.05 3,7.05L164,7.05C165.656,7.05 167,5.706 167,4.05L167,3Z" style="fill:rgb(221,227,233);"/>
                                    <path id="Label5" serif:id="Label" d="M112.096,14.75C112.096,13.094 110.752,11.75 109.096,11.75L3,11.75C1.344,11.75 0,13.094 0,14.75L0,15.8C0,17.456 1.344,18.8 3,18.8L109.096,18.8C110.752,18.8 112.096,17.456 112.096,15.8L112.096,14.75Z" style="fill:rgb(221,227,233);"/>
                                </g>
                                <g id="Check2" serif:id="Check" transform="matrix(1,0,0,1,193.954,16.5)">
                                    <circle id="Background10" serif:id="Background" cx="7" cy="7" r="7" style="fill:rgb(221,227,233);"/>
                                    <circle id="Indicator2" serif:id="Indicator" cx="7" cy="7" r="3" style="fill:rgb(242,242,242);"/>
                                </g>
                            </g>
                            <g id="Row9" serif:id="Row" transform="matrix(1,0,0,1,0,55)">
                                <path id="Container6" serif:id="Container" d="M225,4C225,1.792 223.208,0 221,0L4,0C1.792,0 0,1.792 0,4L0,35C0,37.208 1.792,39 4,39L221,39C223.208,39 225,37.208 225,35L225,4Z" style="fill:white;"/>
                                <g id="Text-Stuff3" serif:id="Text-Stuff" transform="matrix(1,0,0,1,9,11.7)">
                                    <path id="Label6" serif:id="Label" d="M167,2.925C167,1.311 165.689,0 164.075,0L2.925,0C1.311,0 0,1.311 0,2.925C0,4.539 1.311,5.85 2.925,5.85L164.075,5.85C165.689,5.85 167,4.539 167,2.925Z" style="fill:rgb(221,227,233);"/>
                                    <path id="Label7" serif:id="Label" d="M112.096,12.675C112.096,11.061 110.785,9.75 109.171,9.75L2.925,9.75C1.311,9.75 0,11.061 0,12.675C0,14.289 1.311,15.6 2.925,15.6L109.171,15.6C110.785,15.6 112.096,14.289 112.096,12.675Z" style="fill:rgb(221,227,233);"/>
                                </g>
                                <g id="Check3" serif:id="Check" transform="matrix(1,0,0,1,193.954,12.5)">
                                    <circle id="Background11" serif:id="Background" cx="7" cy="7" r="7" style="fill:rgb(221,227,233);"/>
                                    <circle id="Indicator3" serif:id="Indicator" cx="7" cy="7" r="3" style="fill:rgb(242,242,242);"/>
                                </g>
                            </g>
                            <g id="Row10" serif:id="Row" transform="matrix(1,0,0,1,0,102)">
                                <path id="Container7" serif:id="Container" d="M225,4C225,1.792 223.208,0 221,0L4,0C1.792,0 0,1.792 0,4L0,35C0,37.208 1.792,39 4,39L221,39C223.208,39 225,37.208 225,35L225,4Z" style="fill:white;"/>
                                <g id="Text-Stuff4" serif:id="Text-Stuff" transform="matrix(1,0,0,1,9,11.7)">
                                    <path id="Label8" serif:id="Label" d="M167,2.925C167,1.311 165.689,0 164.075,0L2.925,0C1.311,0 0,1.311 0,2.925C0,4.539 1.311,5.85 2.925,5.85L164.075,5.85C165.689,5.85 167,4.539 167,2.925Z" style="fill:rgb(221,227,233);"/>
                                    <path id="Label9" serif:id="Label" d="M112.096,12.675C112.096,11.061 110.785,9.75 109.171,9.75L2.925,9.75C1.311,9.75 0,11.061 0,12.675C0,14.289 1.311,15.6 2.925,15.6L109.171,15.6C110.785,15.6 112.096,14.289 112.096,12.675Z" style="fill:rgb(221,227,233);"/>
                                </g>
                                <g id="Check4" serif:id="Check" transform="matrix(1,0,0,1,193.954,12.5)">
                                    <circle id="Background12" serif:id="Background" cx="7" cy="7" r="7" style="fill:rgb(221,227,233);"/>
                                    <circle id="Indicator4" serif:id="Indicator" cx="7" cy="7" r="3" style="fill:rgb(175,185,197);"/>
                                </g>
                            </g>
                            <g id="Row11" serif:id="Row" transform="matrix(1,0,0,1,0,243)">
                                <path id="Container8" serif:id="Container" d="M225,4C225,1.792 223.208,0 221,0L4,0C1.792,0 0,1.792 0,4L0,35C0,37.208 1.792,39 4,39L221,39C223.208,39 225,37.208 225,35L225,4Z" style="fill:white;"/>
                                <g id="Text-Stuff5" serif:id="Text-Stuff" transform="matrix(1,0,0,1,9,11.7)">
                                    <path id="Label10" serif:id="Label" d="M167,2.925C167,1.311 165.689,0 164.075,0L2.925,0C1.311,0 0,1.311 0,2.925C0,4.539 1.311,5.85 2.925,5.85L164.075,5.85C165.689,5.85 167,4.539 167,2.925Z" style="fill:rgb(221,227,233);"/>
                                    <path id="Label11" serif:id="Label" d="M112.096,12.675C112.096,11.061 110.785,9.75 109.171,9.75L2.925,9.75C1.311,9.75 0,11.061 0,12.675C0,14.289 1.311,15.6 2.925,15.6L109.171,15.6C110.785,15.6 112.096,14.289 112.096,12.675Z" style="fill:rgb(221,227,233);"/>
                                </g>
                                <g id="Check5" serif:id="Check" transform="matrix(1,0,0,1,193.954,12.5)">
                                    <circle id="Background13" serif:id="Background" cx="7" cy="7" r="7" style="fill:rgb(221,227,233);"/>
                                    <circle id="Indicator5" serif:id="Indicator" cx="7" cy="7" r="3" style="fill:rgb(242,242,242);"/>
                                </g>
                            </g>
                            <g id="Row12" serif:id="Row" transform="matrix(1,0,0,1,0,196)">
                                <path id="Container9" serif:id="Container" d="M225,4C225,1.792 223.208,0 221,0L4,0C1.792,0 0,1.792 0,4L0,35C0,37.208 1.792,39 4,39L221,39C223.208,39 225,37.208 225,35L225,4Z" style="fill:white;"/>
                                <g id="Text-Stuff6" serif:id="Text-Stuff" transform="matrix(1,0,0,1,9,11.7)">
                                    <path id="Label12" serif:id="Label" d="M167,2.925C167,1.311 165.689,0 164.075,0L2.925,0C1.311,0 0,1.311 0,2.925C0,4.539 1.311,5.85 2.925,5.85L164.075,5.85C165.689,5.85 167,4.539 167,2.925Z" style="fill:rgb(221,227,233);"/>
                                    <path id="Label13" serif:id="Label" d="M112.096,12.675C112.096,11.061 110.785,9.75 109.171,9.75L2.925,9.75C1.311,9.75 0,11.061 0,12.675C0,14.289 1.311,15.6 2.925,15.6L109.171,15.6C110.785,15.6 112.096,14.289 112.096,12.675Z" style="fill:rgb(221,227,233);"/>
                                </g>
                                <g id="Check6" serif:id="Check" transform="matrix(1,0,0,1,193.954,12.5)">
                                    <circle id="Background14" serif:id="Background" cx="7" cy="7" r="7" style="fill:rgb(221,227,233);"/>
                                    <circle id="Indicator6" serif:id="Indicator" cx="7" cy="7" r="3" style="fill:rgb(242,242,242);"/>
                                </g>
                            </g>
                            <g id="Row13" serif:id="Row" transform="matrix(1,0,0,1,0,149)">
                                <path id="Container10" serif:id="Container" d="M225,4C225,1.792 223.208,0 221,0L4,0C1.792,0 0,1.792 0,4L0,35C0,37.208 1.792,39 4,39L221,39C223.208,39 225,37.208 225,35L225,4Z" style="fill:white;"/>
                                <g id="Text-Stuff7" serif:id="Text-Stuff" transform="matrix(1,0,0,1,9,11.7)">
                                    <path id="Label14" serif:id="Label" d="M167,2.925C167,1.311 165.689,0 164.075,0L2.925,0C1.311,0 0,1.311 0,2.925C0,4.539 1.311,5.85 2.925,5.85L164.075,5.85C165.689,5.85 167,4.539 167,2.925Z" style="fill:rgb(221,227,233);"/>
                                    <path id="Label15" serif:id="Label" d="M112.096,12.675C112.096,11.061 110.785,9.75 109.171,9.75L2.925,9.75C1.311,9.75 0,11.061 0,12.675C0,14.289 1.311,15.6 2.925,15.6L109.171,15.6C110.785,15.6 112.096,14.289 112.096,12.675Z" style="fill:rgb(221,227,233);"/>
                                </g>
                                <g id="Check7" serif:id="Check" transform="matrix(1,0,0,1,193.954,12.5)">
                                    <circle id="Background15" serif:id="Background" cx="7" cy="7" r="7" style="fill:rgb(221,227,233);"/>
                                    <circle id="Indicator7" serif:id="Indicator" cx="7" cy="7" r="3" style="fill:rgb(242,242,242);"/>
                                </g>
                            </g>
                        </g>
                    </g>
                    <path id="Fill-1" d="M687.986,297.376C684.041,294.701 678.796,294 674.076,294C655.64,294 638.311,300.84 623.341,311.032C615.138,316.616 607.8,323.728 601.322,331.132C597.582,335.407 594.248,340.03 591.887,345.173C590.294,348.644 589.201,352.261 588.46,355.991C587.557,360.537 586.839,365.175 586.515,369.797C586.387,371.617 585.33,381.274 588.356,381.438C588.338,381.676 588.334,381.903 588.353,382.106C581.782,392.38 577.723,404.42 573.958,415.835C570.683,425.769 567.764,435.786 565.87,446.063C563.375,459.592 561.737,473.326 560.958,487.05C560.791,489.999 560.676,492.95 560.577,495.903C560.493,498.422 560.408,500.941 560.325,503.461C560.233,506.284 559.736,509.534 560.185,512.34C560.576,514.784 562.691,514.414 562.785,511.982C562.898,509.045 562.879,506.102 563.008,503.163C563.179,499.262 563.355,495.361 563.546,491.461C564.875,464.369 569.86,437.675 579.061,412.084C582.785,401.728 587.051,391.925 592.535,382.345C597.356,373.922 603.156,365.767 609.084,358.173C614.845,350.792 620.836,343.583 627.895,337.33C633.624,332.256 639.926,327.835 646.404,323.722C654.631,318.498 662.843,313.401 671.755,309.391C676.388,307.307 681.108,305.441 685.777,303.44C686.617,303.081 687.517,302.732 688.325,302.315C691.02,300.925 690.133,298.832 687.986,297.376" style="fill:rgb(193,222,226);"/>
                    <g id="Fill-20" transform="matrix(-1,0,0,1,1242,0)">
                        <path d="M628.182,392C620.705,392 614.051,392.972 607.162,395.943C601.215,398.508 595.795,401.903 590.533,405.599C583.132,410.798 577.302,416.848 573.221,424.865C570.783,429.654 568.994,436.431 570.632,441.655C572.56,447.807 577.856,452.939 584.831,451.855C589.144,451.185 593.097,448.33 596.375,445.643C600.297,442.428 603.436,438.563 606.028,434.27C610.256,427.267 612.74,419.351 616.332,412.033C618.036,408.56 619.683,405.063 621.725,401.762C622.735,400.128 623.811,398.509 625.344,397.294C626.164,396.644 629.622,395.52 628.3,394.061C647.69,394.315 664.868,409.207 668.591,427.641C668.937,429.359 669.208,431.091 669.495,432.82C669.675,433.911 669.602,437.937 670.578,438.634C672.73,440.172 671.826,435.499 671.733,434.826C671.494,433.087 671.24,431.35 670.973,429.615C669.519,420.181 665.319,411.411 658.315,404.683C650.306,396.99 639.499,392 628.182,392" style="fill:rgb(137,197,204);"/>
                    </g>
                    <g id="Plant" transform="matrix(1,0,0,1,65,333)">
                        <path id="Fill-19" d="M9.938,35.736C28.604,67.052 50.345,97.374 63.401,131.613C62.875,127.577 62.317,123.545 61.692,119.52C58.38,98.179 54.262,76.994 49.936,55.835C47.733,45.062 45.402,34.327 43.012,23.594C41.727,17.829 40.457,12.061 39.145,6.302C38.827,4.906 38.554,2.469 38.157,0C50.845,41.637 63.081,83.305 72.031,125.942C73.205,131.538 74.205,137.124 75.024,142.7C75.304,141.428 75.58,140.156 75.881,138.887C79.503,123.68 84.935,108.594 91.403,94.374C94.495,87.575 98.046,80.924 102.228,74.726C104.836,70.863 110.986,66.271 113.364,62.314C100.355,86.176 95.657,116.032 88.145,141.973C86.312,148.304 84.467,154.624 82.659,160.955C93.987,138.237 111.563,119.571 136,111.483C106.42,131.027 88.678,165.254 76.722,200.26C76.683,200.675 76.636,201.09 76.595,201.506C80.114,194.829 84.545,188.789 90.551,184.56C103.407,175.504 117.667,178.142 130.137,185.91C120.35,179.689 102.663,185.354 94.428,191.677C88.533,196.203 83.495,202.275 79.12,208.2C78.072,209.62 76.641,211.277 75.13,213.044C73.012,226.795 69.56,240.452 64.672,254C65.479,250.111 64.896,243.892 65.12,240.993C65.144,240.679 65.164,240.365 65.188,240.053C64.445,243.019 63.727,245.951 63.036,248.837C64.41,243.331 65.156,237.583 65.739,231.776C65.889,229.281 66.036,226.785 66.19,224.29C66.141,219.553 65.946,214.799 65.616,210.036C64.447,205.408 63.137,201.042 62.056,197.411C58.159,184.31 52.444,171.76 45.411,160.051C38.994,149.366 31.312,139.688 22.445,130.935C17.664,126.217 12.661,121.725 7.729,117.17C5.945,115.523 2.757,111.474 0,109.363C20.08,120.434 40.749,132.41 55.398,150.248C53.68,143.653 51.815,137.151 49.842,130.78C39.831,98.454 27.191,64.953 9.938,35.736Z" style="fill:rgb(221,227,233);"/>
                        <path id="Base" d="M30,213C30,248.899 32.843,278 71,278C109.157,278 112,248.899 112,213" style="fill:rgb(197,207,214);"/>
                    </g>
                    <g id="Graph" transform="matrix(1,0,0,1,520,52)">
                        <path id="Value" d="M6,35C6,33.344 4.656,32 3,32C1.344,32 0,33.344 0,35L0,54C0,55.656 1.344,57 3,57C4.656,57 6,55.656 6,54L6,35Z" style="fill:rgb(221,227,233);"/>
                        <path id="Value1" serif:id="Value" d="M20,19C20,17.344 18.656,16 17,16C15.344,16 14,17.344 14,19L14,54C14,55.656 15.344,57 17,57C18.656,57 20,55.656 20,54L20,19Z" style="fill:rgb(221,227,233);"/>
                        <path id="Value2" serif:id="Value" d="M34,11C34,9.344 32.656,8 31,8C29.344,8 28,9.344 28,11L28,54C28,55.656 29.344,57 31,57C32.656,57 34,55.656 34,54L34,11Z" style="fill:rgb(221,227,233);"/>
                        <path id="Value3" serif:id="Value" d="M48,19C48,17.344 46.656,16 45,16C43.344,16 42,17.344 42,19L42,54C42,55.656 43.344,57 45,57C46.656,57 48,55.656 48,54L48,19Z" style="fill:rgb(221,227,233);"/>
                        <path id="Value4" serif:id="Value" d="M62,3C62,1.344 60.656,0 59,0C57.344,0 56,1.344 56,3L56,54C56,55.656 57.344,57 59,57C60.656,57 62,55.656 62,54L62,3Z" style="fill:rgb(197,207,214);"/>
                    </g>
                    <g id="Pie-Chart" transform="matrix(-1,0,0,1,68,338)">
                        <path id="Value5" serif:id="Value" d="M40,20.256C40,9.117 30.998,0 20,0L20,20.256L33.668,35C37.556,31.395 40,26.107 40,20.256Z" style="fill:rgb(242,242,242);"/>
                        <path id="Value6" serif:id="Value" d="M20.529,20L0.332,20C0.332,25.221 2.462,30.113 5.829,33.668C9.532,37.556 14.805,40 20.529,40C25.802,40 30.628,37.891 34.332,34.557L20.529,20Z" style="fill:rgb(175,185,197);"/>
                        <path id="Value7" serif:id="Value" d="M0,20C0,9.002 9.002,0 20,0L20,20L0,20ZM30,0L22,18L40,10C38.22,5.334 34.223,1.78 30,0Z" style="fill:rgb(197,207,214);"/>
                    </g>
                    <g id="Chart" transform="matrix(1,0,0,1,641,330)">
                        <path id="Value8" serif:id="Value" d="M37.766,37.179C35.845,39.219 33.123,40.5 30.095,40.5C24.278,40.5 19.562,35.799 19.562,30C19.562,24.201 24.278,19.5 30.095,19.5L30.095,0C13.546,0 0,13.503 0,30C0,46.497 13.546,60 30.095,60C38.788,60 46.645,56.334 52,50.502L37.766,37.179Z" style="fill:rgb(242,242,242);"/>
                        <path id="Value9" serif:id="Value" d="M30,0L30,19.5C35.799,19.5 40.5,24.201 40.5,30L60,30C60,13.503 46.497,0 30,0Z" style="fill:rgb(175,185,197);"/>
                        <path id="Value10" serif:id="Value" d="M40.097,30C40.097,33.407 38.492,36.435 36,38.391L48.262,54C55.399,48.412 60,39.749 60,30L40.097,30Z" style="fill:rgb(197,207,214);"/>
                    </g>
                    <g id="Chart1" serif:id="Chart" transform="matrix(1,0,0,1,459,63)">
                        <path id="Value11" serif:id="Value" d="M29.051,28.504C27.573,30.068 25.479,31.05 23.15,31.05C18.675,31.05 15.048,27.446 15.048,23C15.048,18.554 18.675,14.95 23.15,14.95L23.15,0C10.42,0 0,10.352 0,23C0,35.648 10.42,46 23.15,46C29.837,46 35.88,43.189 40,38.718L29.051,28.504Z" style="fill:rgb(242,242,242);"/>
                        <path id="Value12" serif:id="Value" d="M23,0L23,14.95C27.446,14.95 31.05,18.554 31.05,23L46,23C46,10.352 35.648,0 23,0Z" style="fill:rgb(175,185,197);"/>
                        <path id="Value13" serif:id="Value" d="M31.073,23C31.073,25.555 29.869,27.827 28,29.293L37.196,41C42.55,36.809 46,30.312 46,23L31.073,23Z" style="fill:rgb(197,207,214);"/>
                    </g>
                    <g id="Image" transform="matrix(1,0,0,1,76,57)">
                        <path id="Fill-35" d="M48.007,51.986C48.003,51.996 47.999,52.006 47.993,52.018C47.999,52.008 48.007,51.968 48.007,51.986" style="fill:rgb(197,207,214);"/>
                        <path id="Fill-37" d="M47.998,52.001C47.998,52.003 47.996,52.007 47.996,52.011C47.996,52.001 48.014,51.971 47.998,52.001" style="fill:rgb(197,207,214);"/>
                        <path id="Fill-39" d="M48.067,51.832C48.053,51.872 48.035,51.91 48.019,51.95C48.027,51.93 48.035,51.914 48.043,51.894C47.835,52.414 47.967,52.076 48.067,51.832" style="fill:rgb(197,207,214);"/>
                        <path id="Fill-41" d="M48.022,51.953C48.014,51.971 48.006,51.991 47.998,52.009C47.94,52.121 48.022,51.953 48.022,51.953" style="fill:rgb(197,207,214);"/>
                        <path id="Fill-43" d="M48,52.001L48,51.999L48,52.001Z" style="fill:rgb(197,207,214);"/>
                        <path id="Fill-45" d="M47.999,52.002C47.999,52 47.999,52 48.001,51.998C47.999,52 47.999,52 47.999,52.002" style="fill:rgb(197,207,214);"/>
                        <path id="Fill-47" d="M47.99,52.016C47.978,52.04 48.046,51.924 47.99,52.016" style="fill:rgb(197,207,214);"/>
                        <path id="Fill-49" d="M47.998,52.002L48.002,51.998C48,52 48,52.002 47.998,52.002" style="fill:rgb(197,207,214);"/>
                        <path id="Photo-Background" d="M95,4C95,1.792 93.208,0 91,0L4,0C1.792,0 0,1.792 0,4L0,59C0,61.208 1.792,63 4,63L91,63C93.208,63 95,61.208 95,59L95,4Z" style="fill:rgb(221,227,233);"/>
                        <g id="icons8-night_landscape" transform="matrix(1,0,0,1,8,18)">
                            <path id="Mountains" d="M28,0L0,45L56,45L28,0Z" style="fill:rgb(175,185,197);"/>
                            <path id="Mountains1" serif:id="Mountains" d="M55.5,12L31,45L80,45L55.5,12Z" style="fill:rgb(197,207,214);"/>
                        </g>
                        <circle id="Sun" cx="74" cy="21" r="9" style="fill:white;"/>
                    </g>
                    <g id="Image1" serif:id="Image" transform="matrix(-1,0,0,1,672,459)">
                        <path id="Fill-351" serif:id="Fill-35" d="M71.007,76.986C71.003,76.996 70.999,77.006 70.993,77.018C70.999,77.008 71.007,76.968 71.007,76.986" style="fill:rgb(197,207,214);"/>
                        <path id="Fill-371" serif:id="Fill-37" d="M70.998,77.001C70.998,77.003 70.996,77.007 70.996,77.011C70.996,77.001 71.014,76.971 70.998,77.001" style="fill:rgb(197,207,214);"/>
                        <path id="Fill-391" serif:id="Fill-39" d="M71.067,76.832C71.053,76.872 71.035,76.91 71.019,76.95C71.027,76.93 71.035,76.914 71.043,76.894C70.835,77.414 70.967,77.076 71.067,76.832" style="fill:rgb(197,207,214);"/>
                        <path id="Fill-411" serif:id="Fill-41" d="M71.022,76.953C71.014,76.971 71.006,76.991 70.998,77.009C70.94,77.121 71.022,76.953 71.022,76.953" style="fill:rgb(197,207,214);"/>
                        <path id="Fill-431" serif:id="Fill-43" d="M71,77.001L71,76.999L71,77.001Z" style="fill:rgb(197,207,214);"/>
                        <path id="Fill-451" serif:id="Fill-45" d="M70.999,77.002C70.999,77 70.999,77 71.001,76.998C70.999,77 70.999,77 70.999,77.002" style="fill:rgb(197,207,214);"/>
                        <path id="Fill-471" serif:id="Fill-47" d="M70.99,77.016C70.978,77.04 71.046,76.924 70.99,77.016" style="fill:rgb(197,207,214);"/>
                        <path id="Fill-491" serif:id="Fill-49" d="M70.998,77.002L71.002,76.998C71,77 71,77.002 70.998,77.002" style="fill:rgb(197,207,214);"/>
                        <path id="Photo-Background1" serif:id="Photo-Background" d="M142,4C142,1.792 140.208,0 138,0L4,0C1.792,0 0,1.792 0,4L0,90C0,92.208 1.792,94 4,94L138,94C140.208,94 142,92.208 142,90L142,4Z" style="fill:rgb(221,227,233);"/>
                        <g id="icons8-night_landscape1" serif:id="icons8-night_landscape" transform="matrix(1,0,0,1,11,27)">
                            <path id="Mountains2" serif:id="Mountains" d="M41.726,0L0.671,67L82.781,67L41.726,0Z" style="fill:rgb(175,185,197);"/>
                            <path id="Mountains3" serif:id="Mountains" d="M84.056,17.946L47.761,67L120.351,67L84.056,17.946Z" style="fill:rgb(197,207,214);"/>
                        </g>
                        <circle id="Sun1" serif:id="Sun" cx="110.5" cy="31.5" r="13.5" style="fill:white;"/>
                    </g>
                </g>
            </g>
        </g>
        <g transform="matrix(1,0,0,1,-46.9999,28.4235)">
            <g id="Shorts" transform="matrix(1,0,0,1,450,466.92)">
                <g transform="matrix(1,0,0,1,-150,-119.5)">
                    <clipPath id="_clip1">
                        <rect x="0" y="0" width="300" height="239"/>
                    </clipPath>
                    <g clip-path="url(#_clip1)">
                        <g id="Bottom-Standing-Shorts" serif:id="Bottom/Standing/Shorts">
                            <path id="Leg" d="M128,0L165.631,123.024L183.86,227.648L198.153,227.648L178.891,0L128,0Z" style="fill:rgb(153,118,89);"/>
                            <path id="Leg1" serif:id="Leg" d="M114.538,0C117.094,67.547 114.086,102.389 113.514,108.526C112.942,114.663 105.108,154.455 86.564,229.708L101.794,224.478C131.102,155.459 141.089,119.589 144.45,110.526C147.812,101.463 156.739,64.621 171.233,0L114.538,0Z" style="fill:rgb(178,139,103);"/>
                            <g id="Accessories-Shoe-Flat-Sneaker" serif:id="Accessories/Shoe/Flat-Sneaker" transform="matrix(1,0,0,1,84,199)">
                                <path id="shoe" d="M2.678,25.402C1.559,28.388 1,30.623 1,32.106C1,33.909 1.3,36.54 1.901,40L58.303,40C59.769,35.155 58.923,32.539 55.765,32.152C52.607,31.766 49.984,31.417 47.895,31.106L21.68,19.419C21.176,19.194 20.584,19.421 20.359,19.925C20.356,19.934 20.352,19.942 20.348,19.951L18.663,24.039C15.74,25.403 13.364,26.085 11.537,26.085C10.052,26.085 8.001,25.485 5.384,24.285L5.384,24.285C4.38,23.825 3.193,24.266 2.733,25.27C2.713,25.313 2.695,25.357 2.678,25.402Z" style="fill:rgb(228,228,228);"/>
                            </g>
                            <g id="Accessories-Shoe-Flat-Sneaker1" serif:id="Accessories/Shoe/Flat-Sneaker" transform="matrix(1,0,0,1,178,199)">
                                <path id="shoe1" serif:id="shoe" d="M2.678,25.402C1.559,28.388 1,30.623 1,32.106C1,33.909 1.3,36.54 1.901,40L58.303,40C59.769,35.155 58.923,32.539 55.765,32.152C52.607,31.766 49.984,31.417 47.895,31.106L21.68,19.419C21.176,19.194 20.584,19.421 20.359,19.925C20.356,19.934 20.352,19.942 20.348,19.951L18.663,24.039C15.74,25.403 13.364,26.085 11.537,26.085C10.052,26.085 8.001,25.485 5.384,24.285L5.384,24.285C4.38,23.825 3.193,24.266 2.733,25.27C2.713,25.313 2.695,25.357 2.678,25.402Z" style="fill:rgb(228,228,228);"/>
                            </g>
                            <path id="Bottom" d="M123,0L139,62.68L187.87,62.68L180.584,0L123,0Z" style="fill:rgb(105,161,172);"/>
                            <path id="Bottom1" serif:id="Bottom" d="M114,-0C108.735,15.781 107.735,36.674 111,62.68L160.87,62.68L174.584,-0L114,-0Z" style="fill:rgb(137,197,204);"/>
                        </g>
                    </g>
                </g>
            </g>
            <g id="Airy" transform="matrix(1,0,0,1,449,204.206)">
                <g transform="matrix(1,0,0,1,-68,-52)">
                    <clipPath id="_clip2">
                        <rect x="0" y="0" width="136" height="104"/>
                    </clipPath>
                    <g clip-path="url(#_clip2)">
                        <g id="Head-Front-Airy" serif:id="Head/Front/Airy">
                            <g id="Head" transform="matrix(1,0,0,1,54,31)">
                                <path d="M8.262,34.49C3.654,29.081 0.536,22.453 1.057,15.025C2.558,-6.375 32.349,-1.667 38.143,9.134C43.938,19.935 43.25,47.333 35.76,49.263C32.774,50.033 26.411,48.147 19.935,44.244L24,73L0,73L8.262,34.49Z" style="fill:rgb(178,139,103);"/>
                            </g>
                            <path id="hair" d="M78.464,27.685C75.301,27.167 66.784,26.81 65.213,26.81C64.21,26.81 63.122,27.039 62.527,26.118C62.041,25.363 62.219,24.087 62.074,23.211C61.905,22.193 61.665,21.189 61.423,20.187C60.733,17.337 59.69,14.625 58.231,12.079C55.493,7.302 51.481,3.56 46.417,1.383C40.824,-1.021 34.496,-1.572 28.48,-1.084C22.043,-0.562 16.216,1.563 10.138,3.562C4.346,5.468 -1.72,6.218 -7.778,5.288C-13.882,4.35 -18.493,1.042 -23.641,-2.098C-28.911,-5.312 -34.934,-7.414 -41.165,-6.931C-46.98,-6.48 -52.341,-4.078 -57.15,-0.871C-61.649,2.131 -65.362,5.742 -67.458,10.824C-69.713,16.291 -69.711,22.292 -66.003,27.123C-60.628,34.127 -50.65,35.938 -42.349,35.758C-37.547,35.654 -32.832,34.777 -28.299,33.183C-22.253,31.056 -17.029,27.452 -11.373,24.528C-8.719,23.156 -5.975,22.029 -3.099,21.217C-0.309,20.429 2.44,20.067 4.966,21.753C7.639,23.537 10.034,25.289 13.092,26.405C16.026,27.476 19.133,28.075 22.258,28.051C28.339,28.004 34.333,26.109 40.239,24.84C45.054,23.806 50.207,22.774 55.117,23.769C57.166,24.184 60.159,25.041 60.899,27.17C48.444,29.427 43.553,44.83 47.064,56.137C48.959,62.24 60.35,69.374 64.779,66.166C67.585,64.133 65.881,61.465 64.779,59.703C62.668,56.33 61.945,51.997 65.852,49.648C69.222,47.622 72.765,52.433 72.832,52.427C73.758,52.354 81.76,47.829 87.274,41.224C92.713,41.547 93.539,37.96 92.24,35.027C90.941,32.094 82.834,28.402 78.464,27.685Z" style="fill:rgb(25,24,71);"/>
                        </g>
                    </g>
                </g>
            </g>
            <g id="Jacket-2" serif:id="Jacket 2" transform="matrix(1,0,0,1,448,329.869)">
                <g transform="matrix(1,0,0,1,-128,-93.5)">
                    <g id="Body-Jacket-2" serif:id="Body/Jacket-2">
                        <path id="Skin" d="M198,77.617L234.235,61.704C240.582,55.379 246.711,50.572 252.623,47.282C254.39,46.719 257.41,46.549 254.188,51.255C250.966,55.961 247.789,61.056 249.076,62.705C250.364,64.355 254.093,62.534 255.566,65.216C256.549,67.004 250.262,69.143 236.707,71.633L209.57,92.439L198,77.617ZM51.508,82L72,86.066C51.392,124.471 40.34,144.826 38.845,147.13C35.48,152.315 38.62,161.817 39.779,166.821C32.504,168.515 35.373,157.565 26.167,159.851C17.764,161.938 10.639,167.293 2.804,160.071C1.841,159.183 1.135,156.407 4.42,154.984C12.603,151.437 24.692,144.796 26.652,142.218C29.326,138.702 37.611,118.629 51.508,82Z" style="fill:rgb(178,139,103);"/>
                        <g id="Coat-Back" transform="matrix(0.996195,0.0871557,-0.0871557,0.996195,5.74472,-15.2521)">
                            <path d="M123.28,9.877L131.765,7.646C152.12,24.205 163.602,67.262 176.613,71.956C188.913,76.394 205.209,69.632 224.503,60.739L231.796,73.835C215.41,95 178.299,114.917 161.843,106.84C135.534,93.927 125.047,40.501 123.28,9.877Z" style="fill:rgb(215,4,0);"/>
                        </g>
                        <path id="Shirt" d="M90,114L166.511,114C170.008,114 169.349,108.952 168.843,106.404C163.011,77.004 140.241,45.312 140.241,3.461L118.172,0C99.917,29.358 93.605,65.505 90,114Z" style="fill:rgb(221,227,233);"/>
                        <path id="Coat-Front" d="M82.369,84.233C66.771,112.368 53.661,132.623 43.037,145L27,141.859C37.331,77.791 67.247,30.504 116.748,0L125.486,0C145.299,67.537 150.761,112.537 141.872,135L73,135C74.09,118.563 77.583,101.181 82.369,84.233L82.369,84.233Z" style="fill:rgb(215,4,0);"/>
                    </g>
                </g>
            </g>
        </g>
        <g transform="matrix(1,0,0,1,88.0001,40.6735)">
            <g id="Skinny-Jeans" serif:id="Skinny Jeans" transform="matrix(-1,0,0,1,793,466.92)">
                <g transform="matrix(1,0,0,1,-150,-119.5)">
                    <g id="Bottom-Standing-Skinny-Jeans" serif:id="Bottom/Standing/Skinny-Jeans">
                        <path id="Leg2" serif:id="Leg" d="M128,0L164.255,127.227L190.707,221L210,221L181.891,0L128,0Z" style="fill:rgb(25,24,71);"/>
                        <path id="Leg3" serif:id="Leg" d="M118.304,0C117.466,65.574 114.606,101.34 113.726,107.298C112.845,113.256 99.532,151.156 73.786,221L93.773,221C126.549,153.997 144.846,116.096 148.662,107.298C152.479,98.5 164.259,62.734 182,0L118.304,0Z" style="fill:rgb(47,54,118);"/>
                        <g id="Accessories-Shoe-Flat-Pointy" serif:id="Accessories/Shoe/Flat-Pointy" transform="matrix(1,0,0,1,72,199)">
                            <path id="Shoe" d="M0,40L1,19L22,19C31.958,26 44.958,31.667 61,36L61,40L23,40L10,38L10,40L0,40Z" style="fill:rgb(25,24,71);"/>
                        </g>
                        <g id="Accessories-Shoe-Flat-Pointy1" serif:id="Accessories/Shoe/Flat-Pointy" transform="matrix(1,0,0,1,188,199)">
                            <path id="Shoe1" serif:id="Shoe" d="M0,40L1,19L22,19C31.958,26 44.958,31.667 61,36L61,40L23,40L10,38L10,40L0,40Z" style="fill:rgb(25,24,71);"/>
                        </g>
                    </g>
                </g>
            </g>
            <g id="Short-Beard" serif:id="Short Beard" transform="matrix(-1,0,0,1,782.596,179.706)">
                <g transform="matrix(1,0,0,1,-68,-52)">
                    <g id="Head-Front-Short-Beard" serif:id="Head/Front/Short-Beard">
                        <g id="Head1" serif:id="Head" transform="matrix(1,0,0,1,54,31)">
                            <path d="M8.262,34.49C3.654,29.081 0.536,22.453 1.057,15.025C2.558,-6.375 32.349,-1.667 38.143,9.134C43.938,19.935 43.25,47.333 35.76,49.263C32.774,50.033 26.411,48.147 19.935,44.244L24,73L0,73L8.262,34.49Z" style="fill:rgb(178,139,103);"/>
                        </g>
                        <path id="Hair" d="M75.135,48.389C76.054,61.186 78.484,67.585 82.426,67.585C88.339,67.585 93.355,63.831 95.95,63.831C97.841,63.831 97.419,66.198 96.165,67.952C95.131,69.4 90.094,70.796 90.094,73.04C90.094,75.285 94.073,73.548 94.073,74.879C94.073,77.081 94.773,81.221 90.951,81.221C87.084,81.221 75.995,79.812 74.094,74.071C72.868,70.367 72.075,62.691 71.716,51.042C71.481,51.014 71.242,51 71,51C67.686,51 65,53.686 65,57C65,58.682 65.692,60.203 66.808,61.292C65.419,63.252 63.863,65.299 62.08,67.411C55.382,63.393 50.412,51.629 56.96,40.328C58.77,34.792 62.868,31.835 67.707,30.462C71.627,28.822 75.697,28.638 79.132,29.621C85.866,30.198 91.879,32.252 93.583,33.471C93.583,39.846 92.348,41.738 81.797,41.571C79.204,42.94 77.211,45.298 75.135,48.389Z" style="fill:rgb(25,24,71);"/>
                    </g>
                </g>
            </g>
            <g id="Pointing-Forward" serif:id="Pointing Forward" transform="matrix(-1,0,0,1,784,305.788)">
                <g transform="matrix(1,0,0,1,-128,-93.5)">
                    <clipPath id="_clip3">
                        <rect x="0" y="0" width="256" height="187"/>
                    </clipPath>
                    <g clip-path="url(#_clip3)">
                        <g id="Body-Pointing-Forward" serif:id="Body/Pointing-Forward">
                            <path id="Skin1" serif:id="Skin" d="M158.638,42.7L193.348,23.69C199.12,16.836 204.807,11.512 210.409,7.72C212.121,7.005 215.114,6.573 212.315,11.542C209.515,16.51 206.794,21.863 208.22,23.394C209.647,24.924 213.203,22.786 214.905,25.329C216.039,27.025 209.963,29.704 196.677,33.365L171.456,56.458L158.638,42.7ZM213,58.74L228.247,50.364C230.386,42.224 232.943,38.128 235.918,38.077C238.204,37.014 234.224,47.3 238.556,46.408C242.889,45.516 253.464,37.651 255.286,39.248C257.982,41.61 255.578,48.864 252.746,52.473C247.453,59.218 243.071,61.524 232.238,64.544C226.575,66.124 220.451,69.289 213.868,74.04L213,58.74Z" style="fill:rgb(153,118,89);"/>
                            <g id="Sleeve" transform="matrix(0.987688,-0.156434,0.156434,0.987688,-4.80122,26.4908)">
                                <path d="M142.858,34.75C154.886,36.525 171.3,36.525 190.104,28.386L194.443,44.412C180.806,54.242 162.713,61.227 148.288,58.525C136.92,56.396 133.272,41.66 142.858,34.75Z" style="fill:rgb(32,38,162);"/>
                            </g>
                            <path id="Clothes" d="M158.104,62.761C171.011,65.98 192.655,62.184 223.036,51.373C230.572,66.964 234.055,78.078 233.487,84.717C207.424,98.331 185.087,104.401 166.683,104.802C167.268,115.721 165.939,126.112 161.474,135.606C152.295,155.124 98.545,137.048 80.473,140.606C69.155,103.851 91.038,88.914 91.056,65.397C91.075,39.642 111.754,-0 114.797,-0L142.544,0C144.075,19.669 151.78,41.346 158.104,62.761Z" style="fill:rgb(31,40,207);"/>
                        </g>
                    </g>
                </g>
            </g>
        </g>
        <g transform="matrix(11.1232,0,0,11.1232,-1874.54,-782.332)">
            <text x="219.011px" y="98.387px" style="font-family:'Capriola-Regular', 'Capriola';font-size:12px;">?</text>
        </g>
    </g>
</svg>
