<?xml version="1.0" encoding="UTF-8" standalone="no"?>
<!DOCTYPE svg PUBLIC "-//W3C//DTD SVG 1.1//EN" "http://www.w3.org/Graphics/SVG/1.1/DTD/svg11.dtd">
<svg width="100%" height="100%" viewBox="0 0 612 133" version="1.1" xmlns="http://www.w3.org/2000/svg" xmlns:xlink="http://www.w3.org/1999/xlink" xml:space="preserve" xmlns:serif="http://www.serif.com/" style="fill-rule:evenodd;clip-rule:evenodd;stroke-linejoin:round;stroke-miterlimit:2;">
    <g id="Capa-1" serif:id="Capa 1">
        <g transform="matrix(1,0,0,1,50.6157,46.0523)">
            <path d="M0,37.789L-38.361,37.789C-38.057,37.244 -37.838,36.734 -37.684,36.231L0.589,36.231C0.707,35.833 0.8,35.425 0.871,35.007L-37.426,35.007C-37.362,34.514 -37.339,34.004 -37.339,33.452L1.045,33.452C1.065,33.109 1.072,32.768 1.064,32.424L-37.367,32.232L-37.414,30.674L0.914,30.674C0.853,30.264 0.773,29.856 0.673,29.455L-37.545,29.455C-37.641,28.93 -37.799,28.426 -38.074,27.898L0.165,27.898C-0.013,27.471 -0.214,27.061 -0.444,26.679L-38.886,26.679C-39.416,26.017 -39.999,25.503 -40.649,25.121L-1.673,25.121C-2.626,24.23 -3.826,23.685 -5.281,23.685L-41.797,23.685C-42.855,23.555 -43.608,22.587 -43.475,21.528C-43.354,20.578 -42.634,19.91 -41.678,19.852L-7.435,19.852C0.706,19.852 5.142,25.579 5.134,32.543C5.125,39.092 1.305,45.353 -6,45.115L-42.276,45.115C-42.943,44.931 -43.355,44.481 -43.475,43.799C-43.628,42.904 -43.048,42.053 -42.156,41.883L-6.6,41.883C-4.82,41.883 -3.38,41.39 -2.251,40.562L-40.71,40.562C-40.132,40.143 -39.626,39.633 -39.158,39.008L-0.722,39.008C-0.446,38.627 -0.209,38.219 0,37.789M51.245,9.05L12.883,9.05C13.188,8.509 13.41,7.998 13.559,7.495L51.834,7.495C51.95,7.098 52.045,6.69 52.116,6.277L13.819,6.277C13.884,5.778 13.901,5.269 13.901,4.715L52.292,4.715C52.31,4.377 52.316,4.034 52.307,3.69L13.876,3.497L13.829,1.94L52.16,1.94C52.097,1.53 52.018,1.121 51.914,0.719L13.702,0.719C13.604,0.198 13.444,-0.309 13.172,-0.837L51.408,-0.837C51.233,-1.265 51.031,-1.673 50.8,-2.057L12.359,-2.057C11.83,-2.718 11.249,-3.232 10.599,-3.615L49.57,-3.615C48.623,-4.503 47.419,-5.05 45.963,-5.05L9.449,-5.05C8.388,-5.179 7.634,-6.15 7.77,-7.205C7.891,-8.155 8.609,-8.825 9.566,-8.881L43.806,-8.881C51.948,-8.881 56.386,-3.156 56.378,3.808C56.375,10.357 52.549,16.618 45.244,16.378L8.969,16.378C8.3,16.195 7.889,15.744 7.77,15.061C7.614,14.171 8.197,13.321 9.087,13.147L44.647,13.147C46.425,13.147 47.863,12.655 48.992,11.832L10.537,11.832C11.111,11.407 11.617,10.899 12.087,10.274L50.521,10.274C50.796,9.893 51.034,9.48 51.245,9.05M51.245,-18.246L12.883,-18.246C13.188,-18.786 13.41,-19.296 13.559,-19.801L51.834,-19.801C51.95,-20.195 52.045,-20.607 52.116,-21.021L13.819,-21.021C13.884,-21.517 13.901,-22.03 13.901,-22.577L52.292,-22.577C52.31,-22.921 52.316,-23.264 52.307,-23.606L13.876,-23.801L13.829,-25.355L52.16,-25.355C52.097,-25.767 52.018,-26.177 51.914,-26.577L13.702,-26.577C13.604,-27.098 13.444,-27.606 13.172,-28.133L51.408,-28.133C51.233,-28.563 51.031,-28.969 50.8,-29.353L12.359,-29.353C11.83,-30.015 11.249,-30.529 10.599,-30.913L49.57,-30.913C48.623,-31.8 47.419,-32.347 45.963,-32.347L9.449,-32.347C8.388,-32.476 7.634,-33.445 7.77,-34.5C7.891,-35.454 8.609,-36.121 9.566,-36.178L43.806,-36.178C51.948,-36.178 56.386,-30.454 56.378,-23.485C56.375,-16.936 52.549,-10.678 45.244,-10.919L8.969,-10.919C8.3,-11.103 7.889,-11.549 7.77,-12.234C7.614,-13.128 8.197,-13.975 9.087,-14.151L44.647,-14.151C46.425,-14.151 47.863,-14.641 48.992,-15.467L10.537,-15.467C11.111,-15.887 11.617,-16.397 12.087,-17.024L50.521,-17.024C50.796,-17.404 51.034,-17.811 51.245,-18.246M52.789,36.254C41.655,15.903 11.083,21.48 10.92,47.044C10.774,69.303 42.134,78.273 53.957,62.683C54.722,61.954 55.824,61.891 56.664,62.535C57.516,63.182 57.747,64.293 57.218,65.225C42.849,84.383 6.61,73.324 6.78,47.014C6.977,16.824 44.768,10.394 56.695,34.887C57.088,35.934 56.596,37.083 55.566,37.52C54.469,37.988 53.157,37.388 52.789,36.254M34.83,44.994C35.086,45.822 34.711,47.51 36.683,46.86C37.612,46.552 38.473,41.493 33.377,41.354C30.651,41.276 28.359,43.507 28.359,45.961C28.359,49.917 31.405,53.116 35.29,53.116C39.873,53.116 43.607,49.386 43.607,44.798C43.607,39.728 39.083,35.577 33.632,35.577C26.949,35.577 22.556,40.11 22.556,45.961C22.556,62.485 49.412,62.517 49.412,45.353C49.412,37.011 41.966,29.693 33.051,29.649C24.037,29.611 17.042,37.002 16.515,46.3C15.934,56.545 25.288,64.892 36.026,64.889C45.005,65.225 49.748,59.313 49.748,59.313L48.957,57.923L53.39,57.802L53.39,62.352L52.43,61.755C47.562,66.703 42.616,68.678 36.026,68.681C23.602,68.685 11.997,58.968 12.729,46.086C13.354,35.076 21.746,25.806 33.066,25.857C43.928,25.91 53.207,34.783 53.207,45.353C53.207,54.967 44.97,62.529 35.465,62.248C26.519,61.985 18.764,55.139 18.764,45.961C18.764,37.877 24.992,31.786 33.632,31.786C40.865,31.786 47.4,37.332 47.4,44.798C47.4,51.478 41.968,56.911 35.29,56.911C29.158,56.911 24.569,51.863 24.569,45.961C24.569,41.212 28.781,37.431 33.484,37.563C39.087,37.718 44.647,45.472 38.536,50.166C34.707,53.104 30.761,48.465 30.761,45.834C30.761,45.834 31.155,43.559 32.28,43.285C33.442,43 34.352,43.44 34.83,44.994M1.305,-20.735C-9.828,-41.087 -40.397,-35.508 -40.564,-9.949C-40.71,12.318 -9.35,21.287 2.473,5.694C3.24,4.965 4.339,4.904 5.183,5.544C6.036,6.193 6.262,7.305 5.734,8.239C-8.633,27.392 -44.874,16.333 -44.702,-9.973C-44.508,-40.165 -6.714,-46.594 5.21,-22.103C5.604,-21.058 5.113,-19.905 4.082,-19.465C2.987,-19.002 1.673,-19.602 1.305,-20.735M-16.654,-11.995C-16.398,-11.166 -16.773,-9.482 -14.804,-10.129C-13.868,-10.437 -13.01,-15.493 -18.107,-15.635C-20.834,-15.709 -23.122,-13.481 -23.122,-11.03C-23.122,-7.072 -20.081,-3.87 -16.196,-3.87C-11.611,-3.87 -7.876,-7.604 -7.876,-12.191C-7.876,-17.263 -12.401,-21.41 -17.852,-21.41C-24.539,-21.41 -28.931,-16.878 -28.931,-11.03C-28.931,5.496 -2.073,5.526 -2.073,-11.634C-2.073,-19.979 -9.518,-27.299 -18.434,-27.337C-27.449,-27.381 -34.44,-19.987 -34.968,-10.69C-35.548,-0.441 -26.197,7.902 -15.458,7.899C-6.478,8.239 -1.736,2.322 -1.736,2.322L-2.528,0.934L1.903,0.815L1.903,5.363L0.946,4.767C-3.922,9.715 -8.868,11.689 -15.453,11.691C-27.884,11.698 -39.484,1.979 -38.756,-10.904C-38.132,-21.911 -29.739,-31.185 -18.416,-31.129C-7.554,-31.078 1.721,-22.207 1.721,-11.634C1.721,-2.019 -6.517,5.542 -16.02,5.264C-24.963,4.998 -32.719,-1.848 -32.719,-11.03C-32.719,-19.11 -26.492,-25.204 -17.852,-25.204C-10.619,-25.204 -4.083,-19.658 -4.083,-12.191C-4.083,-5.509 -9.515,-0.08 -16.196,-0.08C-22.323,-0.08 -26.917,-5.127 -26.917,-11.03C-26.917,-15.775 -22.703,-19.558 -18.001,-19.427C-12.397,-19.269 -6.836,-11.515 -12.946,-6.822C-16.776,-3.879 -20.724,-8.524 -20.724,-11.156C-20.724,-11.156 -20.327,-13.432 -19.201,-13.703C-18.039,-13.987 -17.132,-13.551 -16.654,-11.995M0,65.085L-38.361,65.085C-38.057,64.538 -37.838,64.029 -37.684,63.526L0.589,63.526C0.707,63.131 0.8,62.72 0.871,62.305L-37.426,62.305C-37.362,61.809 -37.339,61.298 -37.339,60.749L1.045,60.749C1.065,60.405 1.072,60.06 1.064,59.718L-37.367,59.525L-37.414,57.972L0.914,57.972C0.853,57.56 0.773,57.151 0.673,56.748L-37.545,56.748C-37.641,56.229 -37.799,55.72 -38.074,55.191L0.165,55.191C-0.013,54.765 -0.214,54.357 -0.444,53.973L-38.886,53.973C-39.416,53.314 -39.999,52.796 -40.649,52.416L-1.673,52.416C-2.626,51.526 -3.826,50.979 -5.281,50.979L-41.797,50.979C-42.855,50.852 -43.608,49.88 -43.475,48.825C-43.354,47.874 -42.634,47.203 -41.678,47.148L-7.435,47.148C0.706,47.148 5.142,52.872 5.134,59.84C5.125,66.39 1.305,72.648 -6,72.41L-42.276,72.41C-42.943,72.228 -43.355,71.778 -43.475,71.09C-43.628,70.2 -43.048,69.351 -42.156,69.177L-6.6,69.177C-4.82,69.177 -3.38,68.685 -2.251,67.858L-40.71,67.858C-40.132,67.44 -39.626,66.93 -39.158,66.303L-0.722,66.303C-0.446,65.924 -0.209,65.514 0,65.085M-50.616,-35.559C-50.616,-39.366 -47.53,-42.455 -43.722,-42.455L59.341,-42.455C63.151,-42.455 66.24,-39.366 66.24,-35.559L66.24,74.924C66.24,78.731 63.151,81.82 59.341,81.82L-43.722,81.82C-47.53,81.82 -50.616,78.731 -50.616,74.924L-50.616,-35.559ZM-46.669,-33.226L-46.669,72.59C-46.669,75.638 -44.198,78.109 -41.15,78.109L56.766,78.109C59.815,78.109 62.286,75.638 62.286,72.59L62.286,-33.226C62.286,-36.274 59.815,-38.741 56.766,-38.741L-41.15,-38.741C-44.198,-38.741 -46.669,-36.274 -46.669,-33.226" style="fill:white;fill-rule:nonzero;"/>
        </g>
        <g transform="matrix(1,0,0,1,125.295,37.2915)">
            <path d="M0,0.311L0,0.156C0,-15.744 12.235,-28.213 28.759,-28.213C39.904,-28.213 47.073,-23.537 51.906,-16.835L40.527,-8.028C37.41,-11.925 33.825,-14.419 28.602,-14.419C20.965,-14.419 15.587,-7.95 15.587,-0.001L15.587,0.156C15.587,8.338 20.965,14.729 28.602,14.729C34.292,14.729 37.643,12.08 40.917,8.104L52.296,16.21C47.151,23.302 40.216,28.524 28.134,28.524C12.547,28.524 0,16.601 0,0.311" style="fill:white;fill-rule:nonzero;"/>
        </g>
        <g transform="matrix(1,0,0,1,227.866,37.2915)">
            <path d="M0,0.311L0,0.156C0,-7.716 -5.69,-14.574 -14.028,-14.574C-22.291,-14.574 -27.824,-7.873 -27.824,-0.001L-27.824,0.156C-27.824,8.027 -22.135,14.886 -13.873,14.886C-5.533,14.886 0,8.183 0,0.311M-43.333,0.311L-43.333,0.156C-43.333,-15.51 -30.708,-28.213 -13.873,-28.213C2.962,-28.213 15.432,-15.666 15.432,-0.001L15.432,0.156C15.432,15.82 2.805,28.524 -14.028,28.524C-30.863,28.524 -43.333,15.977 -43.333,0.311" style="fill:white;fill-rule:nonzero;"/>
        </g>
        <g transform="matrix(1,0,0,1,281.491,22.3284)">
            <path d="M0,30.238C4.598,30.238 7.247,28.446 7.247,25.25L7.247,25.095C7.247,22.133 4.909,20.185 -0.157,20.185L-11.691,20.185L-11.691,30.238L0,30.238ZM-2.184,9.585C2.416,9.585 4.988,8.026 4.988,4.831L4.988,4.675C4.988,1.714 2.649,-0.001 -1.871,-0.001L-11.691,-0.001L-11.691,9.585L-2.184,9.585ZM-26.421,-12.159L1.559,-12.159C8.417,-12.159 13.249,-10.445 16.445,-7.249C18.626,-5.067 19.952,-2.184 19.952,1.557L19.952,1.714C19.952,8.026 16.365,11.767 11.534,13.872C18.159,16.053 22.368,19.795 22.368,27.199L22.368,27.355C22.368,36.707 14.729,42.397 1.714,42.397L-26.421,42.397L-26.421,-12.159Z" style="fill:white;fill-rule:nonzero;"/>
        </g>
        <g transform="matrix(1,0,0,1,346.807,31.2903)">
            <path d="M0,11.924L-6.078,-3.585L-12.234,11.924L0,11.924ZM-13.248,-21.511L1.326,-21.511L24.551,33.435L8.34,33.435L4.365,23.693L-16.678,23.693L-20.574,33.435L-36.474,33.435L-13.248,-21.511Z" style="fill:white;fill-rule:nonzero;"/>
        </g>
        <g transform="matrix(1,0,0,1,375.18,37.2915)">
            <path d="M0,0.311L0,0.156C0,-15.744 12.235,-28.213 28.76,-28.213C39.904,-28.213 47.073,-23.537 51.906,-16.835L40.527,-8.028C37.41,-11.925 33.825,-14.419 28.603,-14.419C20.965,-14.419 15.587,-7.95 15.587,-0.001L15.587,0.156C15.587,8.338 20.965,14.729 28.603,14.729C34.293,14.729 37.643,12.08 40.917,8.104L52.296,16.21C47.151,23.302 40.216,28.524 28.135,28.524C12.548,28.524 0,16.601 0,0.311" style="fill:white;fill-rule:nonzero;"/>
        </g>
        <g transform="matrix(1,0,0,1,437.847,64.7249)">
            <path d="M0,-54.556L15.119,-54.556L15.119,-34.137L34.526,-34.137L34.526,-54.556L49.646,-54.556L49.646,0L34.526,0L34.526,-20.731L15.119,-20.731L15.119,0L0,0L0,-54.556Z" style="fill:white;fill-rule:nonzero;"/>
        </g>
        <g transform="matrix(1,0,0,1,559.704,37.2915)">
            <path d="M0,0.311L0,0.156C0,-15.744 12.235,-28.213 28.759,-28.213C39.903,-28.213 47.073,-23.537 51.906,-16.835L40.526,-8.028C37.409,-11.925 33.825,-14.419 28.603,-14.419C20.965,-14.419 15.587,-7.95 15.587,-0.001L15.587,0.156C15.587,8.338 20.965,14.729 28.603,14.729C34.293,14.729 37.643,12.08 40.917,8.104L52.296,16.21C47.151,23.302 40.216,28.524 28.135,28.524C12.548,28.524 0,16.601 0,0.311" style="fill:white;fill-rule:nonzero;"/>
        </g>
        <g transform="matrix(1,0,0,1,529.734,22.3284)">
            <path d="M0,30.238C4.599,30.238 7.248,28.446 7.248,25.25L7.248,25.095C7.248,22.133 4.909,20.185 -0.156,20.185L-11.691,20.185L-11.691,30.238L0,30.238ZM-2.183,9.585C2.417,9.585 4.988,8.026 4.988,4.831L4.988,4.675C4.988,1.714 2.649,-0.001 -1.871,-0.001L-11.691,-0.001L-11.691,9.585L-2.183,9.585ZM-26.421,-12.159L1.559,-12.159C8.418,-12.159 13.249,-10.445 16.445,-7.249C18.627,-5.067 19.952,-2.184 19.952,1.557L19.952,1.714C19.952,8.026 16.366,11.767 11.535,13.872C18.159,16.053 22.368,19.795 22.368,27.199L22.368,27.355C22.368,36.707 14.729,42.397 1.714,42.397L-26.421,42.397L-26.421,-12.159Z" style="fill:white;fill-rule:nonzero;"/>
        </g>
        <g transform="matrix(-1,0,0,1,736.685,65.918)">
            <rect x="129.336" y="31.843" width="478.013" height="3.252" style="fill:white;"/>
        </g>
        <g transform="matrix(1,0,0,1,129.419,82.2417)">
            <path d="M0,0.106L0,0.053C0,-5.255 3.974,-9.602 9.628,-9.602C13.069,-9.602 15.15,-8.403 16.937,-6.696L14.83,-4.269C13.336,-5.656 11.736,-6.589 9.603,-6.589C6.054,-6.589 3.441,-3.655 3.441,-0.001L3.441,0.053C3.441,3.707 6.027,6.667 9.603,6.667C11.896,6.667 13.363,5.761 14.964,4.267L17.071,6.401C15.124,8.428 12.99,9.708 9.495,9.708C4.054,9.708 0,5.468 0,0.106" style="fill:white;fill-rule:nonzero;"/>
        </g>
        <g transform="matrix(1,0,0,1,165.635,84.5335)">
            <path d="M0,0.135L0,0.081C0,-2.4 -1.788,-4.452 -4.321,-4.452C-6.909,-4.452 -8.563,-2.426 -8.563,0.028L-8.563,0.081C-8.563,2.535 -6.775,4.589 -4.268,4.589C-1.654,4.589 0,2.563 0,0.135M-11.79,0.135L-11.79,0.081C-11.79,-3.946 -8.589,-7.281 -4.268,-7.281C0.053,-7.281 3.228,-4 3.228,0.028L3.228,0.081C3.228,4.083 0.026,7.416 -4.321,7.416C-8.616,7.416 -11.79,4.135 -11.79,0.135" style="fill:white;fill-rule:nonzero;"/>
        </g>
        <g transform="matrix(1,0,0,1,0,30.933)">
            <rect x="177.657" y="41.226" width="3.228" height="19.471" style="fill:white;"/>
        </g>
        <g transform="matrix(1,0,0,1,200.085,85.6016)">
            <path d="M0,-2.001C-0.213,-4.081 -1.44,-5.709 -3.574,-5.709C-5.548,-5.709 -6.935,-4.189 -7.229,-2.001L0,-2.001ZM-10.429,-0.96L-10.429,-1.013C-10.429,-5.042 -7.575,-8.349 -3.547,-8.349C0.934,-8.349 3.201,-4.828 3.201,-0.774C3.201,-0.48 3.174,-0.187 3.148,0.133L-7.202,0.133C-6.855,2.428 -5.228,3.708 -3.147,3.708C-1.573,3.708 -0.454,3.121 0.667,2.027L2.561,3.708C1.227,5.308 -0.613,6.348 -3.201,6.348C-7.282,6.348 -10.429,3.388 -10.429,-0.96" style="fill:white;fill-rule:nonzero;"/>
        </g>
        <g transform="matrix(1,0,0,1,222.539,89.3095)">
            <path d="M0,-5.415L0,-5.469C0,-7.762 -1.895,-9.336 -4.135,-9.336C-6.376,-9.336 -8.136,-7.789 -8.136,-5.469L-8.136,-5.415C-8.136,-3.121 -6.349,-1.547 -4.135,-1.547C-1.895,-1.547 0,-3.121 0,-5.415M-10.696,4.96L-9.497,2.533C-7.976,3.468 -6.402,4.027 -4.482,4.027C-1.601,4.027 -0.027,2.533 -0.027,-0.294L-0.027,-1.388C-1.201,0.133 -2.668,1.201 -4.988,1.201C-8.296,1.201 -11.39,-1.254 -11.39,-5.388L-11.39,-5.441C-11.39,-9.603 -8.27,-12.057 -4.988,-12.057C-2.614,-12.057 -1.147,-10.963 -0.054,-9.655L-0.054,-11.763L3.174,-11.763L3.174,-0.56C3.174,1.814 2.561,3.575 1.386,4.748C0.106,6.028 -1.868,6.642 -4.402,6.642C-6.722,6.642 -8.883,6.054 -10.696,4.96" style="fill:white;fill-rule:nonzero;"/>
        </g>
        <g transform="matrix(1,0,0,1,0,31.091)">
            <path d="M235.281,46.455L238.509,46.455L238.509,60.538L235.281,60.538L235.281,46.455ZM235.147,41.227L238.615,41.227L238.615,44.295L235.147,44.295L235.147,41.227Z" style="fill:white;fill-rule:nonzero;"/>
        </g>
        <g transform="matrix(1,0,0,1,259.07,84.5335)">
            <path d="M0,0.135L0,0.081C0,-2.4 -1.788,-4.452 -4.321,-4.452C-6.909,-4.452 -8.563,-2.426 -8.563,0.028L-8.563,0.081C-8.563,2.535 -6.775,4.589 -4.268,4.589C-1.654,4.589 0,2.563 0,0.135M-11.79,0.135L-11.79,0.081C-11.79,-3.946 -8.589,-7.281 -4.268,-7.281C0.053,-7.281 3.228,-4 3.228,0.028L3.228,0.081C3.228,4.083 0.027,7.416 -4.321,7.416C-8.616,7.416 -11.79,4.135 -11.79,0.135" style="fill:white;fill-rule:nonzero;"/>
        </g>
        <g transform="matrix(1,0,0,1,294.908,79.4677)">
            <path d="M0,5.147L0,5.094C0,2.373 -1.921,0.585 -4.081,0.585C-6.295,0.585 -8.136,2.293 -8.136,5.094L-8.136,5.147C-8.136,7.868 -6.269,9.655 -4.081,9.655C-1.921,9.655 0,7.841 0,5.147M-11.39,5.147L-11.39,5.094C-11.39,0.425 -8.216,-2.215 -4.855,-2.215C-2.535,-2.215 -1.068,-1.068 -0.054,0.266L-0.054,-7.309L3.174,-7.309L3.174,12.162L-0.054,12.162L-0.054,9.814C-1.094,11.283 -2.561,12.456 -4.855,12.456C-8.162,12.456 -11.39,9.814 -11.39,5.147" style="fill:white;fill-rule:nonzero;"/>
        </g>
        <g transform="matrix(1,0,0,1,317.119,85.6016)">
            <path d="M0,-2.001C-0.213,-4.081 -1.44,-5.709 -3.574,-5.709C-5.548,-5.709 -6.935,-4.189 -7.229,-2.001L0,-2.001ZM-10.429,-0.96L-10.429,-1.013C-10.429,-5.042 -7.574,-8.349 -3.547,-8.349C0.934,-8.349 3.201,-4.828 3.201,-0.774C3.201,-0.48 3.174,-0.187 3.148,0.133L-7.201,0.133C-6.854,2.428 -5.228,3.708 -3.147,3.708C-1.573,3.708 -0.453,3.121 0.667,2.027L2.561,3.708C1.227,5.308 -0.613,6.348 -3.2,6.348C-7.282,6.348 -10.429,3.388 -10.429,-0.96" style="fill:white;fill-rule:nonzero;"/>
        </g>
        <g transform="matrix(1,0,0,1,351.037,80.9876)">
            <path d="M0,2.613L-5.201,2.613L-5.201,7.735L0.24,7.735C2.481,7.735 3.841,6.855 3.841,5.174L3.841,5.12C3.841,3.548 2.588,2.613 0,2.613M2.801,-2.748C2.801,-4.215 1.628,-5.122 -0.48,-5.122L-5.201,-5.122L-5.201,-0.16L-0.72,-0.16C1.388,-0.16 2.801,-0.988 2.801,-2.695L2.801,-2.748ZM-8.429,-8.029L-0.054,-8.029C2.08,-8.029 3.762,-7.443 4.828,-6.375C5.655,-5.549 6.082,-4.535 6.082,-3.281L6.082,-3.227C6.082,-0.988 4.802,0.213 3.414,0.933C5.602,1.68 7.122,2.934 7.122,5.467L7.122,5.521C7.122,8.856 4.375,10.642 0.214,10.642L-8.429,10.642L-8.429,-8.029Z" style="fill:white;fill-rule:nonzero;"/>
        </g>
        <g transform="matrix(1,0,0,1,375.543,82.722)">
            <path d="M0,3.84L0,2.88C-0.827,2.56 -1.921,2.319 -3.201,2.319C-5.282,2.319 -6.509,3.199 -6.509,4.666L-6.509,4.72C-6.509,6.081 -5.308,6.854 -3.762,6.854C-1.628,6.854 0,5.627 0,3.84M-9.656,4.853L-9.656,4.801C-9.656,1.76 -7.282,0.265 -3.841,0.265C-2.268,0.265 -1.147,0.506 -0.054,0.853L-0.054,0.506C-0.054,-1.495 -1.28,-2.561 -3.548,-2.561C-5.121,-2.561 -6.295,-2.214 -7.575,-1.682L-8.43,-4.215C-6.882,-4.91 -5.361,-5.362 -3.121,-5.362C-1.015,-5.362 0.56,-4.803 1.547,-3.788C2.587,-2.776 3.067,-1.281 3.067,0.559L3.067,8.908L-0.08,8.908L-0.08,7.147C-1.04,8.295 -2.508,9.202 -4.669,9.202C-7.309,9.202 -9.656,7.681 -9.656,4.853" style="fill:white;fill-rule:nonzero;"/>
        </g>
        <g transform="matrix(1,0,0,1,387.032,84.5335)">
            <path d="M0,0.135L0,0.081C0,-3.92 3.094,-7.281 7.335,-7.281C9.976,-7.281 11.63,-6.294 12.963,-4.853L10.936,-2.693C9.949,-3.734 8.908,-4.452 7.309,-4.452C4.961,-4.452 3.228,-2.426 3.228,0.028L3.228,0.081C3.228,2.589 4.961,4.589 7.441,4.589C8.962,4.589 10.082,3.895 11.096,2.855L13.043,4.776C11.656,6.322 10.029,7.416 7.281,7.416C3.094,7.416 0,4.135 0,0.135" style="fill:white;fill-rule:nonzero;"/>
        </g>
        <g transform="matrix(1,0,0,1,408.365,91.6297)">
            <path d="M0,-19.471L3.228,-19.471L3.228,-11.924C4.135,-13.23 5.441,-14.377 7.629,-14.377C10.803,-14.377 12.644,-12.243 12.644,-8.988L12.644,0L9.416,0L9.416,-8.001C9.416,-10.189 8.322,-11.443 6.402,-11.443C4.534,-11.443 3.228,-10.136 3.228,-7.948L3.228,0L0,0L0,-19.471Z" style="fill:white;fill-rule:nonzero;"/>
        </g>
        <g transform="matrix(1,0,0,1,0,31.091)">
            <path d="M430.418,46.455L433.646,46.455L433.646,60.538L430.418,60.538L430.418,46.455ZM430.284,41.227L433.752,41.227L433.752,44.295L430.284,44.295L430.284,41.227Z" style="fill:white;fill-rule:nonzero;"/>
        </g>
        <g transform="matrix(1,0,0,1,0,30.933)">
            <rect x="443.377" y="41.226" width="3.228" height="19.471" style="fill:white;"/>
        </g>
        <g transform="matrix(1,0,0,1,0,30.933)">
            <rect x="456.336" y="41.226" width="3.228" height="19.471" style="fill:white;"/>
        </g>
        <g transform="matrix(1,0,0,1,478.765,85.6016)">
            <path d="M0,-2.001C-0.214,-4.081 -1.44,-5.709 -3.574,-5.709C-5.549,-5.709 -6.936,-4.189 -7.229,-2.001L0,-2.001ZM-10.43,-0.96L-10.43,-1.013C-10.43,-5.042 -7.575,-8.349 -3.548,-8.349C0.934,-8.349 3.2,-4.828 3.2,-0.774C3.2,-0.48 3.174,-0.187 3.147,0.133L-7.202,0.133C-6.855,2.428 -5.228,3.708 -3.147,3.708C-1.573,3.708 -0.454,3.121 0.667,2.027L2.561,3.708C1.228,5.308 -0.613,6.348 -3.201,6.348C-7.282,6.348 -10.43,3.388 -10.43,-0.96" style="fill:white;fill-rule:nonzero;"/>
        </g>
        <g transform="matrix(1,0,0,1,490.547,91.2554)">
            <path d="M0,-13.709L3.228,-13.709L3.228,-10.535C4.108,-12.642 5.735,-14.083 8.216,-13.975L8.216,-10.561L8.029,-10.561C5.202,-10.561 3.228,-8.721 3.228,-4.987L3.228,0.374L0,0.374L0,-13.709Z" style="fill:white;fill-rule:nonzero;"/>
        </g>
        <g transform="matrix(1,0,0,1,516.069,85.6016)">
            <path d="M0,-2.001C-0.212,-4.081 -1.439,-5.709 -3.573,-5.709C-5.548,-5.709 -6.935,-4.189 -7.229,-2.001L0,-2.001ZM-10.429,-0.96L-10.429,-1.013C-10.429,-5.042 -7.574,-8.349 -3.547,-8.349C0.934,-8.349 3.202,-4.828 3.202,-0.774C3.202,-0.48 3.175,-0.187 3.148,0.133L-7.201,0.133C-6.854,2.428 -5.228,3.708 -3.146,3.708C-1.573,3.708 -0.452,3.121 0.667,2.027L2.562,3.708C1.228,5.308 -0.613,6.348 -3.2,6.348C-7.281,6.348 -10.429,3.388 -10.429,-0.96" style="fill:white;fill-rule:nonzero;"/>
        </g>
        <g transform="matrix(1,0,0,1,526.704,79.4125)">
            <path d="M0,10.377L1.441,8.19C2.987,9.337 4.615,9.923 6.057,9.923C7.443,9.923 8.243,9.337 8.243,8.402L8.243,8.35C8.243,7.257 6.749,6.883 5.096,6.376C3.016,5.79 0.694,4.936 0.694,2.241L0.694,2.188C0.694,-0.479 2.908,-2.106 5.709,-2.106C7.47,-2.106 9.39,-1.493 10.884,-0.506L9.604,1.788C8.243,0.96 6.803,0.454 5.63,0.454C4.375,0.454 3.654,1.042 3.654,1.842L3.654,1.895C3.654,2.935 5.175,3.362 6.829,3.895C8.883,4.535 11.203,5.468 11.203,8.003L11.203,8.057C11.203,11.017 8.91,12.483 5.976,12.483C3.976,12.483 1.761,11.765 0,10.377" style="fill:white;fill-rule:nonzero;"/>
        </g>
        <g transform="matrix(1,0,0,1,570.547,79.4677)">
            <path d="M0,5.147L0,5.094C0,2.373 -1.92,0.585 -4.081,0.585C-6.295,0.585 -8.135,2.293 -8.135,5.094L-8.135,5.147C-8.135,7.868 -6.269,9.655 -4.081,9.655C-1.92,9.655 0,7.841 0,5.147M-11.39,5.147L-11.39,5.094C-11.39,0.425 -8.215,-2.215 -4.854,-2.215C-2.533,-2.215 -1.066,-1.068 -0.054,0.266L-0.054,-7.309L3.174,-7.309L3.174,12.162L-0.054,12.162L-0.054,9.814C-1.094,11.283 -2.561,12.456 -4.854,12.456C-8.162,12.456 -11.39,9.814 -11.39,5.147" style="fill:white;fill-rule:nonzero;"/>
        </g>
        <g transform="matrix(1,0,0,1,592.76,85.6016)">
            <path d="M0,-2.001C-0.215,-4.081 -1.441,-5.709 -3.575,-5.709C-5.549,-5.709 -6.936,-4.189 -7.229,-2.001L0,-2.001ZM-10.43,-0.96L-10.43,-1.013C-10.43,-5.042 -7.577,-8.349 -3.549,-8.349C0.933,-8.349 3.199,-4.828 3.199,-0.774C3.199,-0.48 3.174,-0.187 3.146,0.133L-7.202,0.133C-6.856,2.428 -5.229,3.708 -3.148,3.708C-1.574,3.708 -0.455,3.121 0.667,2.027L2.561,3.708C1.227,5.308 -0.614,6.348 -3.202,6.348C-7.283,6.348 -10.43,3.388 -10.43,-0.96" style="fill:white;fill-rule:nonzero;"/>
        </g>
        <g transform="matrix(1,0,0,1,0,30.933)">
            <rect x="604.728" y="41.226" width="3.228" height="19.471" style="fill:white;"/>
        </g>
        <g transform="matrix(1,0,0,1,129.419,124.912)">
            <path d="M0,-18.671L13.843,-18.671L13.843,-15.737L3.28,-15.737L3.28,-10.884L12.643,-10.884L12.643,-7.948L3.28,-7.948L3.28,-2.935L13.977,-2.935L13.977,0L0,0L0,-18.671Z" style="fill:white;fill-rule:nonzero;"/>
        </g>
        <g transform="matrix(1,0,0,1,151.711,112.694)">
            <path d="M0,10.377L1.44,8.189C2.987,9.337 4.614,9.923 6.055,9.923C7.442,9.923 8.242,9.337 8.242,8.402L8.242,8.351C8.242,7.257 6.748,6.884 5.094,6.376C3.014,5.79 0.693,4.937 0.693,2.241L0.693,2.188C0.693,-0.478 2.907,-2.106 5.708,-2.106C7.468,-2.106 9.389,-1.493 10.883,-0.506L9.603,1.788C8.242,0.961 6.801,0.454 5.628,0.454C4.374,0.454 3.654,1.042 3.654,1.842L3.654,1.896C3.654,2.936 5.175,3.362 6.828,3.895C8.882,4.535 11.202,5.469 11.202,8.003L11.202,8.057C11.202,11.017 8.909,12.483 5.975,12.483C3.974,12.483 1.76,11.765 0,10.377" style="fill:white;fill-rule:nonzero;"/>
        </g>
        <g transform="matrix(1,0,0,1,172.563,111.095)">
            <path d="M0,9.922L0,2.507L-1.787,2.507L-1.787,-0.267L0,-0.267L0,-4.135L3.228,-4.135L3.228,-0.267L7.016,-0.267L7.016,2.507L3.228,2.507L3.228,9.415C3.228,10.668 3.868,11.176 4.961,11.176C5.682,11.176 6.322,11.016 6.962,10.695L6.962,13.336C6.162,13.79 5.282,14.057 4.054,14.057C1.68,14.057 0,13.017 0,9.922" style="fill:white;fill-rule:nonzero;"/>
        </g>
        <g transform="matrix(1,0,0,1,197.526,116.002)">
            <path d="M0,3.841L0,2.881C-0.828,2.561 -1.921,2.32 -3.201,2.32C-5.282,2.32 -6.509,3.2 -6.509,4.667L-6.509,4.721C-6.509,6.082 -5.308,6.855 -3.762,6.855C-1.628,6.855 0,5.628 0,3.841M-9.656,4.854L-9.656,4.802C-9.656,1.761 -7.282,0.267 -3.841,0.267C-2.268,0.267 -1.147,0.507 -0.054,0.854L-0.054,0.507C-0.054,-1.494 -1.281,-2.56 -3.548,-2.56C-5.122,-2.56 -6.295,-2.213 -7.576,-1.68L-8.43,-4.214C-6.882,-4.908 -5.362,-5.361 -3.122,-5.361C-1.014,-5.361 0.56,-4.802 1.546,-3.787C2.586,-2.774 3.067,-1.28 3.067,0.56L3.067,8.909L-0.081,8.909L-0.081,7.149C-1.041,8.296 -2.508,9.202 -4.669,9.202C-7.309,9.202 -9.656,7.682 -9.656,4.854" style="fill:white;fill-rule:nonzero;"/>
        </g>
        <g transform="matrix(1,0,0,1,221.071,112.749)">
            <path d="M0,5.147L0,5.094C0,2.373 -1.92,0.585 -4.081,0.585C-6.295,0.585 -8.135,2.293 -8.135,5.094L-8.135,5.147C-8.135,7.869 -6.268,9.655 -4.081,9.655C-1.92,9.655 0,7.841 0,5.147M-11.389,5.147L-11.389,5.094C-11.389,0.425 -8.215,-2.215 -4.854,-2.215C-2.534,-2.215 -1.066,-1.068 -0.053,0.266L-0.053,-7.309L3.175,-7.309L3.175,12.163L-0.053,12.163L-0.053,9.814C-1.093,11.283 -2.561,12.456 -4.854,12.456C-8.162,12.456 -11.389,9.814 -11.389,5.147" style="fill:white;fill-rule:nonzero;"/>
        </g>
        <g transform="matrix(1,0,0,1,245.257,117.815)">
            <path d="M0,0.135L0,0.081C0,-2.399 -1.788,-4.452 -4.321,-4.452C-6.909,-4.452 -8.563,-2.426 -8.563,0.029L-8.563,0.081C-8.563,2.535 -6.775,4.589 -4.268,4.589C-1.654,4.589 0,2.563 0,0.135M-11.79,0.135L-11.79,0.081C-11.79,-3.946 -8.589,-7.281 -4.268,-7.281C0.053,-7.281 3.228,-4 3.228,0.029L3.228,0.081C3.228,4.083 0.026,7.416 -4.321,7.416C-8.616,7.416 -11.79,4.135 -11.79,0.135" style="fill:white;fill-rule:nonzero;"/>
        </g>
        <g transform="matrix(1,0,0,1,282.321,112.749)">
            <path d="M0,5.147L0,5.094C0,2.373 -1.92,0.585 -4.081,0.585C-6.295,0.585 -8.135,2.293 -8.135,5.094L-8.135,5.147C-8.135,7.869 -6.268,9.655 -4.081,9.655C-1.92,9.655 0,7.841 0,5.147M-11.389,5.147L-11.389,5.094C-11.389,0.425 -8.215,-2.215 -4.854,-2.215C-2.534,-2.215 -1.066,-1.068 -0.053,0.266L-0.053,-7.309L3.175,-7.309L3.175,12.163L-0.053,12.163L-0.053,9.814C-1.093,11.283 -2.561,12.456 -4.854,12.456C-8.162,12.456 -11.389,9.814 -11.389,5.147" style="fill:white;fill-rule:nonzero;"/>
        </g>
        <g transform="matrix(1,0,0,1,305.147,118.882)">
            <path d="M0,-2C-0.213,-4.08 -1.44,-5.708 -3.574,-5.708C-5.548,-5.708 -6.935,-4.188 -7.229,-2L0,-2ZM-10.429,-0.96L-10.429,-1.012C-10.429,-5.041 -7.575,-8.349 -3.547,-8.349C0.934,-8.349 3.201,-4.827 3.201,-0.773C3.201,-0.479 3.174,-0.186 3.147,0.134L-7.202,0.134C-6.855,2.428 -5.228,3.709 -3.147,3.709C-1.573,3.709 -0.454,3.121 0.667,2.027L2.561,3.709C1.228,5.309 -0.613,6.349 -3.201,6.349C-7.282,6.349 -10.429,3.389 -10.429,-0.96" style="fill:white;fill-rule:nonzero;"/>
        </g>
        <g transform="matrix(1,0,0,1,340.291,114.269)">
            <path d="M0,2.613L-5.201,2.613L-5.201,7.734L0.24,7.734C2.481,7.734 3.841,6.854 3.841,5.174L3.841,5.12C3.841,3.548 2.588,2.613 0,2.613M2.801,-2.748C2.801,-4.215 1.628,-5.122 -0.479,-5.122L-5.201,-5.122L-5.201,-0.16L-0.72,-0.16C1.388,-0.16 2.801,-0.988 2.801,-2.695L2.801,-2.748ZM-8.429,-8.029L-0.053,-8.029C2.081,-8.029 3.762,-7.444 4.828,-6.375C5.655,-5.549 6.082,-4.535 6.082,-3.281L6.082,-3.228C6.082,-0.988 4.802,0.213 3.414,0.933C5.602,1.679 7.122,2.934 7.122,5.467L7.122,5.521C7.122,8.855 4.375,10.642 0.214,10.642L-8.429,10.642L-8.429,-8.029Z" style="fill:white;fill-rule:nonzero;"/>
        </g>
        <g transform="matrix(1,0,0,1,365.41,116.002)">
            <path d="M0,3.841L0,2.881C-0.827,2.561 -1.92,2.32 -3.201,2.32C-5.282,2.32 -6.509,3.2 -6.509,4.667L-6.509,4.721C-6.509,6.082 -5.309,6.855 -3.762,6.855C-1.628,6.855 0,5.628 0,3.841M-9.656,4.854L-9.656,4.802C-9.656,1.761 -7.282,0.267 -3.841,0.267C-2.268,0.267 -1.147,0.507 -0.054,0.854L-0.054,0.507C-0.054,-1.494 -1.28,-2.56 -3.548,-2.56C-5.121,-2.56 -6.295,-2.213 -7.575,-1.68L-8.429,-4.214C-6.882,-4.908 -5.361,-5.361 -3.121,-5.361C-1.014,-5.361 0.56,-4.802 1.547,-3.787C2.588,-2.774 3.067,-1.28 3.067,0.56L3.067,8.909L-0.08,8.909L-0.08,7.149C-1.041,8.296 -2.508,9.202 -4.668,9.202C-7.309,9.202 -9.656,7.682 -9.656,4.854" style="fill:white;fill-rule:nonzero;"/>
        </g>
        <g transform="matrix(1,0,0,1,0,102.001)">
            <path d="M378.34,3.598L381.808,3.598L381.808,6.666L378.34,6.666L378.34,3.598ZM376.046,27.124L376.046,24.538C376.365,24.591 376.659,24.618 376.953,24.618C377.859,24.618 378.474,24.137 378.474,22.911L378.474,8.827L381.701,8.827L381.701,23.097C381.701,25.952 380.233,27.257 377.62,27.257C376.979,27.257 376.553,27.205 376.046,27.124" style="fill:white;fill-rule:nonzero;"/>
        </g>
        <g transform="matrix(1,0,0,1,400.582,116.002)">
            <path d="M0,3.841L0,2.881C-0.828,2.561 -1.921,2.32 -3.201,2.32C-5.282,2.32 -6.509,3.2 -6.509,4.667L-6.509,4.721C-6.509,6.082 -5.309,6.855 -3.762,6.855C-1.628,6.855 0,5.628 0,3.841M-9.656,4.854L-9.656,4.802C-9.656,1.761 -7.282,0.267 -3.841,0.267C-2.268,0.267 -1.147,0.507 -0.054,0.854L-0.054,0.507C-0.054,-1.494 -1.28,-2.56 -3.549,-2.56C-5.122,-2.56 -6.296,-2.213 -7.576,-1.68L-8.43,-4.214C-6.882,-4.908 -5.361,-5.361 -3.121,-5.361C-1.015,-5.361 0.56,-4.802 1.546,-3.787C2.586,-2.774 3.066,-1.28 3.066,0.56L3.066,8.909L-0.081,8.909L-0.081,7.149C-1.04,8.296 -2.508,9.202 -4.669,9.202C-7.309,9.202 -9.656,7.682 -9.656,4.854" style="fill:white;fill-rule:nonzero;"/>
        </g>
        <g transform="matrix(1,0,0,1,426.951,115.522)">
            <path d="M0,0.107L0,0.053C0,-5.254 3.974,-9.602 9.629,-9.602C13.069,-9.602 15.15,-8.403 16.937,-6.696L14.83,-4.268C13.336,-5.656 11.736,-6.588 9.603,-6.588C6.054,-6.588 3.439,-3.655 3.439,-0L3.439,0.053C3.439,3.708 6.027,6.668 9.603,6.668C11.896,6.668 13.362,5.762 14.963,4.268L17.07,6.402C15.123,8.428 12.989,9.709 9.495,9.709C4.054,9.709 0,5.468 0,0.107" style="fill:white;fill-rule:nonzero;"/>
        </g>
        <g transform="matrix(1,0,0,1,461.752,116.002)">
            <path d="M0,3.841L0,2.881C-0.827,2.561 -1.921,2.32 -3.201,2.32C-5.282,2.32 -6.509,3.2 -6.509,4.667L-6.509,4.721C-6.509,6.082 -5.309,6.855 -3.762,6.855C-1.628,6.855 0,5.628 0,3.841M-9.656,4.854L-9.656,4.802C-9.656,1.761 -7.282,0.267 -3.841,0.267C-2.268,0.267 -1.147,0.507 -0.054,0.854L-0.054,0.507C-0.054,-1.494 -1.28,-2.56 -3.548,-2.56C-5.121,-2.56 -6.295,-2.213 -7.576,-1.68L-8.43,-4.214C-6.882,-4.908 -5.361,-5.361 -3.121,-5.361C-1.015,-5.361 0.56,-4.802 1.547,-3.787C2.587,-2.774 3.067,-1.28 3.067,0.56L3.067,8.909L-0.08,8.909L-0.08,7.149C-1.041,8.296 -2.508,9.202 -4.668,9.202C-7.309,9.202 -9.656,7.682 -9.656,4.854" style="fill:white;fill-rule:nonzero;"/>
        </g>
        <g transform="matrix(1,0,0,1,0,97.496)">
            <rect x="474.814" y="7.944" width="3.228" height="19.472" style="fill:white;"/>
        </g>
        <g transform="matrix(1,0,0,1,0,97.655)">
            <path d="M488.388,13.173L491.616,13.173L491.616,27.257L488.388,27.257L488.388,13.173ZM488.254,7.944L491.722,7.944L491.722,11.012L488.254,11.012L488.254,7.944Z" style="fill:white;fill-rule:nonzero;"/>
        </g>
        <g transform="matrix(1,0,0,1,502.493,116.59)">
            <path d="M0,-2.988L-1.787,-2.988L-1.787,-5.682L0,-5.682L0,-6.723C0,-8.269 0.4,-9.443 1.147,-10.191C1.894,-10.937 2.934,-11.31 4.321,-11.31C5.441,-11.31 6.215,-11.15 6.936,-10.937L6.936,-8.216C6.295,-8.43 5.734,-8.563 5.042,-8.563C3.814,-8.563 3.174,-7.896 3.174,-6.429L3.174,-5.655L6.909,-5.655L6.909,-2.988L3.228,-2.988L3.228,8.322L0,8.322L0,-2.988Z" style="fill:white;fill-rule:nonzero;"/>
        </g>
        <g transform="matrix(1,0,0,1,528.496,117.815)">
            <path d="M0,0.135L0,0.081C0,-2.399 -1.786,-4.452 -4.321,-4.452C-6.908,-4.452 -8.563,-2.426 -8.563,0.029L-8.563,0.081C-8.563,2.535 -6.774,4.589 -4.268,4.589C-1.653,4.589 0,2.563 0,0.135M-11.789,0.135L-11.789,0.081C-11.789,-3.946 -8.589,-7.281 -4.268,-7.281C0.054,-7.281 3.228,-4 3.228,0.029L3.228,0.081C3.228,4.083 0.026,7.416 -4.321,7.416C-8.615,7.416 -11.789,4.135 -11.789,0.135" style="fill:white;fill-rule:nonzero;"/>
        </g>
        <g transform="matrix(1,0,0,1,540.945,124.539)">
            <path d="M0,-13.711L3.228,-13.711L3.228,-10.537C4.108,-12.644 5.734,-14.084 8.216,-13.977L8.216,-10.563L8.029,-10.563C5.202,-10.563 3.228,-8.723 3.228,-4.988L3.228,0.373L0,0.373L0,-13.711Z" style="fill:white;fill-rule:nonzero;"/>
        </g>
        <g transform="matrix(1,0,0,1,557.903,124.618)">
            <path d="M0,-13.79L3.228,-13.79L3.228,-11.63C4.135,-12.936 5.442,-14.084 7.628,-14.084C10.803,-14.084 12.645,-11.95 12.645,-8.694L12.645,0.294L9.417,0.294L9.417,-7.708C9.417,-9.895 8.323,-11.149 6.401,-11.149C4.535,-11.149 3.228,-9.842 3.228,-7.654L3.228,0.294L0,0.294L0,-13.79Z" style="fill:white;fill-rule:nonzero;"/>
        </g>
        <g transform="matrix(1,0,0,1,0,97.655)">
            <path d="M580.568,13.173L583.796,13.173L583.796,27.257L580.568,27.257L580.568,13.173ZM580.436,7.944L583.904,7.944L583.904,11.012L580.436,11.012L580.436,7.944Z" style="fill:white;fill-rule:nonzero;"/>
        </g>
        <g transform="matrix(1,0,0,1,602.677,116.002)">
            <path d="M0,3.841L0,2.881C-0.825,2.561 -1.919,2.32 -3.199,2.32C-5.28,2.32 -6.507,3.2 -6.507,4.667L-6.507,4.721C-6.507,6.082 -5.308,6.855 -3.76,6.855C-1.626,6.855 0,5.628 0,3.841M-9.655,4.854L-9.655,4.802C-9.655,1.761 -7.281,0.267 -3.841,0.267C-2.267,0.267 -1.146,0.507 -0.053,0.854L-0.053,0.507C-0.053,-1.494 -1.28,-2.56 -3.547,-2.56C-5.121,-2.56 -6.294,-2.213 -7.574,-1.68L-8.428,-4.214C-6.882,-4.908 -5.361,-5.361 -3.12,-5.361C-1.013,-5.361 0.561,-4.802 1.549,-3.787C2.589,-2.774 3.069,-1.28 3.069,0.56L3.069,8.909L-0.079,8.909L-0.079,7.149C-1.04,8.296 -2.507,9.202 -4.667,9.202C-7.309,9.202 -9.655,7.682 -9.655,4.854" style="fill:white;fill-rule:nonzero;"/>
        </g>
    </g>
</svg>
