<?xml version="1.0" encoding="UTF-8" standalone="no"?>
<!DOCTYPE svg PUBLIC "-//W3C//DTD SVG 1.1//EN" "http://www.w3.org/Graphics/SVG/1.1/DTD/svg11.dtd">
<svg width="100%" height="100%" viewBox="0 0 117 125" version="1.1" xmlns="http://www.w3.org/2000/svg" xmlns:xlink="http://www.w3.org/1999/xlink" xml:space="preserve" xmlns:serif="http://www.serif.com/" style="fill-rule:evenodd;clip-rule:evenodd;stroke-linejoin:round;stroke-miterlimit:2;">
    <g id="Artboard1" transform="matrix(1,0,0,1,0.0003,-3.5973)">
        <rect x="-0" y="3.597" width="116.856" height="124.275" style="fill:none;"/>
        <clipPath id="_clip1">
            <rect x="-0" y="3.597" width="116.856" height="124.275"/>
        </clipPath>
        <g clip-path="url(#_clip1)">
            <g transform="matrix(1,0,0,1,51.6154,46.6496)">
                <g id="Capa-1" serif:id="Capa 1">
                    <g>
                        <path d="M0,37.789L-38.361,37.789C-38.057,37.244 -37.838,36.734 -37.684,36.231L0.589,36.231C0.707,35.833 0.8,35.425 0.871,35.007L-37.426,35.007C-37.362,34.514 -37.339,34.004 -37.339,33.452L1.045,33.452C1.065,33.109 1.072,32.768 1.064,32.424L-37.367,32.232L-37.414,30.674L0.914,30.674C0.853,30.264 0.773,29.856 0.673,29.455L-37.545,29.455C-37.641,28.93 -37.799,28.426 -38.074,27.898L0.165,27.898C-0.013,27.471 -0.214,27.061 -0.444,26.679L-38.886,26.679C-39.416,26.017 -39.999,25.503 -40.649,25.121L-1.673,25.121C-2.626,24.23 -3.826,23.685 -5.281,23.685L-41.797,23.685C-42.855,23.555 -43.608,22.587 -43.475,21.528C-43.354,20.578 -42.634,19.91 -41.678,19.852L-7.435,19.852C0.706,19.852 5.142,25.579 5.134,32.543C5.125,39.092 1.305,45.353 -6,45.115L-42.276,45.115C-42.943,44.931 -43.355,44.481 -43.475,43.799C-43.628,42.904 -43.048,42.053 -42.156,41.883L-6.6,41.883C-4.82,41.883 -3.38,41.39 -2.251,40.562L-40.71,40.562C-40.132,40.143 -39.626,39.633 -39.158,39.008L-0.722,39.008C-0.446,38.627 -0.209,38.219 0,37.789M51.245,9.05L12.883,9.05C13.188,8.509 13.41,7.998 13.559,7.495L51.834,7.495C51.95,7.098 52.045,6.69 52.116,6.277L13.819,6.277C13.884,5.778 13.901,5.269 13.901,4.715L52.292,4.715C52.31,4.377 52.316,4.034 52.307,3.69L13.876,3.497L13.829,1.94L52.16,1.94C52.097,1.53 52.018,1.121 51.914,0.719L13.702,0.719C13.604,0.198 13.444,-0.309 13.172,-0.837L51.408,-0.837C51.233,-1.265 51.031,-1.673 50.8,-2.057L12.359,-2.057C11.83,-2.718 11.249,-3.232 10.599,-3.615L49.57,-3.615C48.623,-4.503 47.419,-5.05 45.963,-5.05L9.449,-5.05C8.388,-5.179 7.634,-6.15 7.77,-7.205C7.891,-8.155 8.609,-8.825 9.566,-8.881L43.806,-8.881C51.948,-8.881 56.386,-3.156 56.378,3.808C56.375,10.357 52.549,16.618 45.244,16.378L8.969,16.378C8.3,16.195 7.889,15.744 7.77,15.061C7.614,14.171 8.197,13.321 9.087,13.147L44.647,13.147C46.425,13.147 47.863,12.655 48.992,11.832L10.537,11.832C11.111,11.407 11.617,10.899 12.087,10.274L50.521,10.274C50.796,9.893 51.034,9.48 51.245,9.05M51.245,-18.246L12.883,-18.246C13.188,-18.786 13.41,-19.296 13.559,-19.801L51.834,-19.801C51.95,-20.195 52.045,-20.607 52.116,-21.021L13.819,-21.021C13.884,-21.517 13.901,-22.03 13.901,-22.577L52.292,-22.577C52.31,-22.921 52.316,-23.264 52.307,-23.606L13.876,-23.801L13.829,-25.355L52.16,-25.355C52.097,-25.767 52.018,-26.177 51.914,-26.577L13.702,-26.577C13.604,-27.098 13.444,-27.606 13.172,-28.133L51.408,-28.133C51.233,-28.563 51.031,-28.969 50.8,-29.353L12.359,-29.353C11.83,-30.015 11.249,-30.529 10.599,-30.913L49.57,-30.913C48.623,-31.8 47.419,-32.347 45.963,-32.347L9.449,-32.347C8.388,-32.476 7.634,-33.445 7.77,-34.5C7.891,-35.454 8.609,-36.121 9.566,-36.178L43.806,-36.178C51.948,-36.178 56.386,-30.454 56.378,-23.485C56.375,-16.936 52.549,-10.678 45.244,-10.919L8.969,-10.919C8.3,-11.103 7.889,-11.549 7.77,-12.234C7.614,-13.128 8.197,-13.975 9.087,-14.151L44.647,-14.151C46.425,-14.151 47.863,-14.641 48.992,-15.467L10.537,-15.467C11.111,-15.887 11.617,-16.397 12.087,-17.024L50.521,-17.024C50.796,-17.404 51.034,-17.811 51.245,-18.246M52.789,36.254C41.655,15.903 11.083,21.48 10.92,47.044C10.774,69.303 42.134,78.273 53.957,62.683C54.722,61.954 55.824,61.891 56.664,62.535C57.516,63.182 57.747,64.293 57.218,65.225C42.849,84.383 6.61,73.324 6.78,47.014C6.977,16.824 44.768,10.394 56.695,34.887C57.088,35.934 56.596,37.083 55.566,37.52C54.469,37.988 53.157,37.388 52.789,36.254M34.83,44.994C35.086,45.822 34.711,47.51 36.683,46.86C37.612,46.552 38.473,41.493 33.377,41.354C30.651,41.276 28.359,43.507 28.359,45.961C28.359,49.917 31.405,53.116 35.29,53.116C39.873,53.116 43.607,49.386 43.607,44.798C43.607,39.728 39.083,35.577 33.632,35.577C26.949,35.577 22.556,40.11 22.556,45.961C22.556,62.485 49.412,62.517 49.412,45.353C49.412,37.011 41.966,29.693 33.051,29.649C24.037,29.611 17.042,37.002 16.515,46.3C15.934,56.545 25.288,64.892 36.026,64.889C45.005,65.225 49.748,59.313 49.748,59.313L48.957,57.923L53.39,57.802L53.39,62.352L52.43,61.755C47.562,66.703 42.616,68.678 36.026,68.681C23.602,68.685 11.997,58.968 12.729,46.086C13.354,35.076 21.746,25.806 33.066,25.857C43.928,25.91 53.207,34.783 53.207,45.353C53.207,54.967 44.97,62.529 35.465,62.248C26.519,61.985 18.764,55.139 18.764,45.961C18.764,37.877 24.992,31.786 33.632,31.786C40.865,31.786 47.4,37.332 47.4,44.798C47.4,51.478 41.968,56.911 35.29,56.911C29.158,56.911 24.569,51.863 24.569,45.961C24.569,41.212 28.781,37.431 33.484,37.563C39.087,37.718 44.647,45.472 38.536,50.166C34.707,53.104 30.761,48.465 30.761,45.834C30.761,45.834 31.155,43.559 32.28,43.285C33.442,43 34.352,43.44 34.83,44.994M1.305,-20.735C-9.828,-41.087 -40.397,-35.508 -40.564,-9.949C-40.71,12.318 -9.35,21.287 2.473,5.694C3.24,4.965 4.339,4.904 5.183,5.544C6.036,6.193 6.262,7.305 5.734,8.239C-8.633,27.392 -44.874,16.333 -44.702,-9.973C-44.508,-40.165 -6.714,-46.594 5.21,-22.103C5.604,-21.058 5.113,-19.905 4.082,-19.465C2.987,-19.002 1.673,-19.602 1.305,-20.735M-16.654,-11.995C-16.398,-11.166 -16.773,-9.482 -14.804,-10.129C-13.868,-10.437 -13.01,-15.493 -18.107,-15.635C-20.834,-15.709 -23.122,-13.481 -23.122,-11.03C-23.122,-7.072 -20.081,-3.87 -16.196,-3.87C-11.611,-3.87 -7.876,-7.604 -7.876,-12.191C-7.876,-17.263 -12.401,-21.41 -17.852,-21.41C-24.539,-21.41 -28.931,-16.878 -28.931,-11.03C-28.931,5.496 -2.073,5.526 -2.073,-11.634C-2.073,-19.979 -9.518,-27.299 -18.434,-27.337C-27.449,-27.381 -34.44,-19.987 -34.968,-10.69C-35.548,-0.441 -26.197,7.902 -15.458,7.899C-6.478,8.239 -1.736,2.322 -1.736,2.322L-2.528,0.934L1.903,0.815L1.903,5.363L0.946,4.767C-3.922,9.715 -8.868,11.689 -15.453,11.691C-27.884,11.698 -39.484,1.979 -38.756,-10.904C-38.132,-21.911 -29.739,-31.185 -18.416,-31.129C-7.554,-31.078 1.721,-22.207 1.721,-11.634C1.721,-2.019 -6.517,5.542 -16.02,5.264C-24.963,4.998 -32.719,-1.848 -32.719,-11.03C-32.719,-19.11 -26.492,-25.204 -17.852,-25.204C-10.619,-25.204 -4.083,-19.658 -4.083,-12.191C-4.083,-5.509 -9.515,-0.08 -16.196,-0.08C-22.323,-0.08 -26.917,-5.127 -26.917,-11.03C-26.917,-15.775 -22.703,-19.558 -18.001,-19.427C-12.397,-19.269 -6.836,-11.515 -12.946,-6.822C-16.776,-3.879 -20.724,-8.524 -20.724,-11.156C-20.724,-11.156 -20.327,-13.432 -19.201,-13.703C-18.039,-13.987 -17.132,-13.551 -16.654,-11.995M0,65.085L-38.361,65.085C-38.057,64.538 -37.838,64.029 -37.684,63.526L0.589,63.526C0.707,63.131 0.8,62.72 0.871,62.305L-37.426,62.305C-37.362,61.809 -37.339,61.298 -37.339,60.749L1.045,60.749C1.065,60.405 1.072,60.06 1.064,59.718L-37.367,59.525L-37.414,57.972L0.914,57.972C0.853,57.56 0.773,57.151 0.673,56.748L-37.545,56.748C-37.641,56.229 -37.799,55.72 -38.074,55.191L0.165,55.191C-0.013,54.765 -0.214,54.357 -0.444,53.973L-38.886,53.973C-39.416,53.314 -39.999,52.796 -40.649,52.416L-1.673,52.416C-2.626,51.526 -3.826,50.979 -5.281,50.979L-41.797,50.979C-42.855,50.852 -43.608,49.88 -43.475,48.825C-43.354,47.874 -42.634,47.203 -41.678,47.148L-7.435,47.148C0.706,47.148 5.142,52.872 5.134,59.84C5.125,66.39 1.305,72.648 -6,72.41L-42.276,72.41C-42.943,72.228 -43.355,71.778 -43.475,71.09C-43.628,70.2 -43.048,69.351 -42.156,69.177L-6.6,69.177C-4.82,69.177 -3.38,68.685 -2.251,67.858L-40.71,67.858C-40.132,67.44 -39.626,66.93 -39.158,66.303L-0.722,66.303C-0.446,65.924 -0.209,65.514 0,65.085M-50.616,-35.559C-50.616,-39.366 -47.53,-42.455 -43.722,-42.455L59.341,-42.455C63.151,-42.455 66.24,-39.366 66.24,-35.559L66.24,74.924C66.24,78.731 63.151,81.82 59.341,81.82L-43.722,81.82C-47.53,81.82 -50.616,78.731 -50.616,74.924L-50.616,-35.559ZM-46.669,-33.226L-46.669,72.59C-46.669,75.638 -44.198,78.109 -41.15,78.109L56.766,78.109C59.815,78.109 62.286,75.638 62.286,72.59L62.286,-33.226C62.286,-36.274 59.815,-38.741 56.766,-38.741L-41.15,-38.741C-44.198,-38.741 -46.669,-36.274 -46.669,-33.226" style="fill-rule:nonzero;"/>
                    </g>
                </g>
            </g>
        </g>
    </g>
</svg>
